<svg width="51" height="51" viewBox="0 0 51 51" fill="none" xmlns="http://www.w3.org/2000/svg">
<path d="M14.481 40.2991C14.0285 40.2978 13.5949 40.1174 13.275 39.7975C12.955 39.4775 12.7747 39.044 12.7734 38.5915V12.4085C12.7747 11.956 12.955 11.5224 13.275 11.2025C13.5949 10.8825 14.0285 10.7022 14.481 10.7009H25.2957C25.5969 10.703 25.8852 10.8237 26.0983 11.0367C26.3113 11.2497 26.4319 11.538 26.4341 11.8393V14.6852C26.4344 15.44 26.7343 16.1637 27.268 16.6974C27.8016 17.231 28.5254 17.531 29.2801 17.5312H32.126C32.4273 17.5334 32.7156 17.654 32.9286 17.8671C33.1416 18.0801 33.2623 18.3684 33.2644 18.6696V25.1073H34.4029V18.6696C34.4041 18.1048 34.1928 17.5603 33.8109 17.1442C33.7881 17.1157 26.9065 10.2284 26.9065 10.2284C26.4777 9.80383 25.8992 9.56468 25.2957 9.5625H14.481C13.7263 9.56277 13.0025 9.8627 12.4689 10.3964C11.9352 10.93 11.6353 11.6538 11.635 12.4085V38.5915C11.6353 39.3462 11.9352 40.0699 12.4689 40.6036C13.0025 41.1373 13.7263 41.4372 14.481 41.4375H31.1243C31.0674 41.335 29.9119 40.6292 29.4224 40.2991H14.481Z" fill="white"/>
<path d="M31.5569 19.8081H19.3064C19.1574 19.8111 19.0156 19.8724 18.9113 19.9788C18.807 20.0852 18.7485 20.2283 18.7485 20.3773C18.7485 20.5263 18.8069 20.6694 18.9112 20.7758C19.0155 20.8822 19.1574 20.9435 19.3064 20.9465H31.5569C31.7059 20.9435 31.8477 20.8822 31.952 20.7758C32.0563 20.6694 32.1148 20.5263 32.1148 20.3773C32.1148 20.2283 32.0563 20.0852 31.952 19.9788C31.8477 19.8724 31.7059 19.8111 31.5569 19.8081Z" fill="white"/>
<path d="M31.5568 24.9307H19.3063C19.1573 24.9336 19.0154 24.9949 18.9111 25.1013C18.8067 25.2077 18.7483 25.3508 18.7483 25.4998C18.7483 25.6488 18.8067 25.7919 18.911 25.8984C19.0154 26.0048 19.1573 26.0661 19.3063 26.069H31.5568C31.7058 26.0661 31.8477 26.0048 31.9521 25.8984C32.0564 25.792 32.1148 25.6489 32.1148 25.4998C32.1148 25.3508 32.0564 25.2077 31.9521 25.1013C31.8477 24.9949 31.7058 24.9336 31.5568 24.9307Z" fill="white"/>
<path d="M19.3076 31.1921H25.5915C25.5978 30.8233 25.6998 30.4624 25.8875 30.1448L25.9387 30.0537H19.3076C19.1584 30.0564 19.0162 30.1175 18.9117 30.224C18.8071 30.3304 18.7485 30.4737 18.7485 30.6229C18.7485 30.7721 18.8071 30.9154 18.9117 31.0218C19.0162 31.1283 19.1584 31.1894 19.3076 31.1921Z" fill="white"/>
<path d="M19.3077 36.3146H25.5974C25.6033 36.1589 25.6262 36.0044 25.6657 35.8536C25.7272 35.6124 25.8292 35.3834 25.9673 35.1763H19.3077C19.1587 35.1792 19.0167 35.2404 18.9124 35.3468C18.808 35.4533 18.7495 35.5964 18.7495 35.7455C18.7495 35.8945 18.808 36.0376 18.9124 36.1441C19.0167 36.2505 19.1587 36.3117 19.3077 36.3146Z" fill="white"/>
<path d="M40.3338 35.4325C40.5928 34.3877 40.5928 33.2954 40.3338 32.2506C40.4689 32.185 40.5892 32.0923 40.6872 31.9785C40.7853 31.8646 40.8589 31.7318 40.9037 31.5884C40.9485 31.445 40.9635 31.2939 40.9477 31.1445C40.9319 30.995 40.8857 30.8504 40.8119 30.7195L40.0321 29.3648C39.8826 29.1144 39.6401 28.9332 39.3576 28.8607C39.0751 28.7882 38.7754 28.8303 38.5237 28.9778L38.4668 29.0119C37.6897 28.2685 36.7446 27.7238 35.7119 27.4238V27.3328C35.7106 27.0438 35.5949 26.7672 35.3901 26.5634C35.1852 26.3596 34.908 26.2454 34.6191 26.2456H33.0595C32.9091 26.2463 32.7604 26.278 32.6228 26.3386C32.4852 26.3993 32.3615 26.4876 32.2595 26.5982C32.1575 26.7087 32.0794 26.8391 32.03 26.9811C31.9805 27.1232 31.9609 27.2739 31.9723 27.4238C30.9384 27.7211 29.9928 28.2663 29.2174 29.0119L29.1434 28.9664C28.8923 28.8239 28.5952 28.7858 28.3162 28.8603C28.0372 28.9349 27.7987 29.1161 27.6521 29.3648L26.8723 30.7195C26.7286 30.9695 26.6898 31.2662 26.7645 31.5447C26.8392 31.8231 27.0212 32.0606 27.2707 32.2051L27.3447 32.2506C27.0943 33.2965 27.0943 34.3866 27.3447 35.4325L27.2707 35.4723C27.022 35.6189 26.8408 35.8574 26.7663 36.1364C26.6918 36.4154 26.7298 36.7124 26.8723 36.9636L27.6521 38.3126C27.7249 38.4371 27.8216 38.5461 27.9365 38.6332C28.0515 38.7204 28.1825 38.784 28.322 38.8205C28.4616 38.857 28.607 38.8656 28.7499 38.8458C28.8928 38.826 29.0304 38.7783 29.1548 38.7053L29.2174 38.6712C29.9943 39.4148 30.9394 39.9596 31.9723 40.2592C31.9611 40.4091 31.9808 40.5598 32.0303 40.7018C32.0798 40.8437 32.1579 40.974 32.2599 41.0845C32.3618 41.195 32.4854 41.2834 32.623 41.3441C32.7605 41.4048 32.9091 41.4366 33.0595 41.4375H34.6191C34.7697 41.4368 34.9186 41.4052 35.0566 41.3446C35.1945 41.284 35.3186 41.1958 35.421 41.0853C35.5235 40.9749 35.6021 40.8446 35.6522 40.7025C35.7022 40.5604 35.7225 40.4095 35.7119 40.2592C36.7437 39.957 37.6882 39.4125 38.4668 38.6712L38.5409 38.711C38.6644 38.7831 38.801 38.8301 38.9427 38.8491C39.0845 38.8681 39.2286 38.8588 39.3668 38.8218C39.505 38.7847 39.6344 38.7207 39.7476 38.6332C39.8608 38.5458 39.9556 38.4368 40.0264 38.3125C40.3736 37.6141 41.1387 36.7774 40.9201 36.1383C40.8787 35.9855 40.8049 35.8433 40.7038 35.7215C40.6026 35.5998 40.4764 35.5012 40.3338 35.4325ZM33.8393 37.9028C33.0363 37.9022 32.2515 37.6636 31.584 37.2172C30.9166 36.7707 30.3965 36.1364 30.0895 35.3944C29.7824 34.6524 29.7022 33.8361 29.859 33.0486C30.0158 32.261 30.4026 31.5376 30.9704 30.9698C31.5382 30.402 32.2616 30.0153 33.0491 29.8585C33.8366 29.7017 34.653 29.7819 35.3949 30.0889C36.1369 30.396 36.7712 30.9161 37.2177 31.5835C37.6642 32.2509 37.9028 33.0357 37.9033 33.8387C37.903 34.9165 37.4747 35.95 36.7126 36.7121C35.9505 37.4742 34.917 37.9025 33.8393 37.9028Z" fill="white"/>
<path d="M33.8392 30.9185C33.2611 30.919 32.6962 31.091 32.2158 31.4126C31.7355 31.7343 31.3613 32.1911 31.1406 32.7254C30.9199 33.2597 30.8626 33.8474 30.9759 34.4143C31.0892 34.9812 31.3681 35.5017 31.7773 35.9101C32.1865 36.3184 32.7075 36.5963 33.2746 36.7085C33.8417 36.8208 34.4293 36.7623 34.9632 36.5406C35.4971 36.3188 35.9532 35.9437 36.2739 35.4628C36.5946 34.9818 36.7654 34.4165 36.7649 33.8384C36.7646 33.4546 36.6886 33.0746 36.5414 32.7201C36.3942 32.3656 36.1786 32.0435 35.9069 31.7724C35.6352 31.5012 35.3128 31.2862 34.958 31.1397C34.6032 30.9932 34.223 30.918 33.8392 30.9185Z" fill="white"/>
<path d="M17.7559 19.0546C17.6567 18.9408 17.5164 18.871 17.3658 18.8607C17.2152 18.8504 17.0666 18.9003 16.9528 18.9995C16.8889 19.0575 15.5262 20.4269 15.4304 20.5203C15.466 20.5616 14.9151 20.0047 14.8842 19.9759C14.7792 19.8749 14.6395 19.818 14.4939 19.8169C14.3482 19.8157 14.2077 19.8704 14.1011 19.9697C13.9945 20.069 13.93 20.2053 13.9208 20.3507C13.9116 20.4961 13.9585 20.6394 14.0518 20.7513C14.1051 20.8102 14.1315 20.8301 14.2789 20.9803L15.026 21.7277C15.134 21.8331 15.2784 21.8932 15.4294 21.8954C15.5683 21.8953 15.7025 21.8445 15.8066 21.7524C15.8558 21.708 17.6347 19.9234 17.7282 19.8319C17.8281 19.7287 17.8862 19.5921 17.8913 19.4485C17.8964 19.305 17.8482 19.1646 17.7559 19.0546Z" fill="white"/>
<path d="M17.7561 24.1771C17.6569 24.0633 17.5165 23.9936 17.3659 23.9833C17.2153 23.9729 17.0668 24.0229 16.953 24.122C16.8891 24.18 15.5264 25.5494 15.4306 25.6429C15.4662 25.6841 14.9153 25.1273 14.8844 25.0984C14.7794 24.9975 14.6397 24.9406 14.4941 24.9395C14.3484 24.9383 14.2079 24.993 14.1013 25.0923C13.9947 25.1916 13.9302 25.3279 13.9211 25.4733C13.9119 25.6186 13.9587 25.762 14.0519 25.8739C14.1053 25.9328 14.1317 25.9527 14.2791 26.1029C14.5501 26.374 15.0025 26.8266 15.0262 26.8502C15.1342 26.9557 15.2786 27.0157 15.4296 27.018C15.5685 27.0179 15.7027 26.9671 15.8068 26.875C15.856 26.8305 17.6349 25.046 17.7284 24.9545C17.8283 24.8513 17.8864 24.7147 17.8915 24.5711C17.8966 24.4275 17.8484 24.2872 17.7561 24.1771Z" fill="white"/>
<path d="M17.7561 29.3002C17.6569 29.1864 17.5165 29.1167 17.3659 29.1063C17.2154 29.096 17.0668 29.1459 16.953 29.2451C16.8891 29.3031 15.5264 30.6725 15.4306 30.7659C15.4662 30.8072 14.9153 30.2504 14.8844 30.2215C14.7794 30.1206 14.6397 30.0637 14.4941 30.0625C14.3484 30.0614 14.2079 30.1161 14.1013 30.2154C13.9947 30.3146 13.9302 30.451 13.9211 30.5963C13.9119 30.7417 13.9587 30.885 14.0519 30.9969C14.1053 31.0558 14.1317 31.0758 14.2791 31.2259C14.5501 31.4971 15.0025 31.9496 15.0262 31.9733C15.1342 32.0787 15.2786 32.1388 15.4296 32.141C15.5685 32.141 15.7027 32.0901 15.8068 31.998C15.856 31.9536 17.6349 30.169 17.7284 30.0776C17.8283 29.9743 17.8864 29.8377 17.8915 29.6942C17.8966 29.5506 17.8484 29.4102 17.7561 29.3002Z" fill="white"/>
<path d="M16.953 34.3676C16.8891 34.4256 15.5264 35.795 15.4306 35.8885C15.4662 35.9297 14.9153 35.3729 14.8844 35.3441C14.7794 35.2431 14.6397 35.1862 14.4941 35.1851C14.3484 35.184 14.2079 35.2386 14.1013 35.3379C13.9947 35.4372 13.9302 35.5735 13.9211 35.7189C13.9119 35.8642 13.9587 36.0076 14.0519 36.1195C14.1053 36.1783 14.1317 36.1983 14.2791 36.3485L15.0262 37.0958C15.1342 37.2013 15.2786 37.2613 15.4296 37.2635C15.5685 37.2635 15.7027 37.2126 15.8068 37.1205C15.856 37.0761 17.6349 35.2915 17.7284 35.2001C17.8283 35.0968 17.8864 34.9602 17.8915 34.8167C17.8966 34.6731 17.8483 34.5328 17.756 34.4227C17.6568 34.3089 17.5165 34.2392 17.3659 34.2289C17.2153 34.2185 17.0668 34.2684 16.953 34.3676Z" fill="white"/>
<path d="M25.4999 1.59375C20.7717 1.59367 16.1496 2.99568 12.2182 5.62249C8.28679 8.2493 5.22261 11.9829 3.41314 16.3512C1.60367 20.7195 1.13019 25.5263 2.05258 30.1636C2.97496 34.801 5.25178 39.0607 8.59511 42.4041C11.9384 45.7475 16.1981 48.0244 20.8355 48.9469C25.4729 49.8693 30.2796 49.3959 34.648 47.5865C39.0163 45.7771 42.7499 42.713 45.3768 38.7816C48.0037 34.8503 49.4058 30.2282 49.4058 25.5C49.3986 19.1619 46.8777 13.0855 42.3961 8.60374C37.9144 4.122 31.838 1.60098 25.4999 1.59375ZM25.4999 48.0446C21.041 48.0445 16.6823 46.7222 12.9749 44.245C9.26752 41.7677 6.37799 38.2467 4.6717 34.1272C2.96541 30.0077 2.51901 25.4747 3.38894 21.1015C4.25887 16.7283 6.40607 12.7113 9.559 9.55842C12.7119 6.40554 16.729 4.25842 21.1022 3.38856C25.4754 2.51871 30.0084 2.96519 34.1278 4.67154C38.2473 6.3779 41.7683 9.2675 44.2455 12.9749C46.7227 16.6824 48.0449 21.0411 48.0449 25.5C48.038 31.4771 45.6605 37.2075 41.434 41.4339C37.2075 45.6604 31.4771 48.0378 25.4999 48.0446Z" fill="white"/>
</svg>
