<svg width="43" height="49" viewBox="0 0 43 49" fill="none" xmlns="http://www.w3.org/2000/svg">
<path d="M38.9419 9.41992C36.8325 9.74805 33.5513 9.88867 29.895 8.62305C26.0981 7.31055 23.5669 5.01367 22.1138 3.37305L21.0825 2.24805L20.0981 3.37305C18.27 5.5293 15.9263 7.2168 13.3481 8.29492C9.36377 9.98242 5.66064 9.8418 3.27002 9.41992L1.62939 9.13867C1.62939 9.13867 1.77002 11.1543 1.77002 11.3887C2.5669 23.9512 4.30127 32.248 6.92627 36.0918C11.4263 42.6543 17.4263 45.748 20.6138 47.0605L21.1763 47.248L21.6919 47.0137C26.1919 44.7637 30.2231 41.4824 33.3169 37.5449C37.8169 31.873 39.4575 18.5137 40.1606 12.7949C40.2544 11.9512 40.6763 9.13867 40.6763 9.13867L38.9419 9.41992Z" stroke="white" stroke-width="3" stroke-miterlimit="10"/>
<path d="M21.1763 36.6074C14.6138 36.6074 9.31689 31.3105 9.31689 24.748C9.31689 18.1855 14.6138 12.8887 21.1763 12.8887C27.7388 12.8887 33.0356 18.1855 33.0356 24.748C33.0356 31.3105 27.7388 36.6074 21.1763 36.6074Z" stroke="white" stroke-width="3" stroke-miterlimit="10"/>
<path d="M9.31689 24.4668H33.0356" stroke="white" stroke-width="3" stroke-miterlimit="10"/>
<path d="M21.0825 36.5137C23.749 36.5137 25.9106 31.246 25.9106 24.748C25.9106 18.2501 23.749 12.9824 21.0825 12.9824C18.416 12.9824 16.2544 18.2501 16.2544 24.748C16.2544 31.246 18.416 36.5137 21.0825 36.5137Z" stroke="white" stroke-width="3" stroke-miterlimit="10"/>
</svg>
