<svg width="74" height="85" viewBox="0 0 74 85" fill="none" xmlns="http://www.w3.org/2000/svg">
<rect x="0.5" y="19.5" width="61" height="65" rx="7.5" fill="#E7F1F8"/>
<rect x="0.5" y="19.5" width="61" height="65" rx="7.5" stroke="#3E90C9"/>
<path d="M50.2141 57.6172C50.9008 56.7031 51.3125 55.5719 51.3125 54.3438C51.3125 51.3281 48.8586 48.875 45.8438 48.875C42.8289 48.875 40.375 51.3281 40.375 54.3438C40.375 55.5719 40.7867 56.7031 41.4734 57.6172C39.3078 58.1242 37.6375 59.9195 37.3133 62.1492C36.8039 61.8898 36.2664 61.693 35.7109 61.5633C36.6664 60.4656 37.25 59.0352 37.25 57.4688C37.25 54.0227 34.4461 51.2188 31 51.2188C27.5539 51.2188 24.75 54.0227 24.75 57.4688C24.75 59.0352 25.3336 60.4656 26.2891 61.5633C25.7328 61.693 25.1953 61.8898 24.6867 62.1492C24.3625 59.9195 22.6922 58.1242 20.5266 57.6172C21.2133 56.7031 21.625 55.5719 21.625 54.3438C21.625 51.3281 19.1711 48.875 16.1562 48.875C13.1414 48.875 10.6875 51.3281 10.6875 54.3438C10.6875 55.5719 11.0992 56.7031 11.7859 57.6172C9.36953 58.1836 7.5625 60.3508 7.5625 62.9375V69.9688C7.5625 70.4 7.91172 70.75 8.34375 70.75H20.8438V74.6562C20.8438 75.0875 21.193 75.4375 21.625 75.4375H40.375C40.807 75.4375 41.1562 75.0875 41.1562 74.6562V70.75H53.6562C54.0883 70.75 54.4375 70.4 54.4375 69.9688V62.9375C54.4375 60.3508 52.6305 58.1828 50.2141 57.6172ZM45.8438 50.4375C47.9977 50.4375 49.75 52.1898 49.75 54.3438C49.75 56.4977 47.9977 58.25 45.8438 58.25C43.6898 58.25 41.9375 56.4977 41.9375 54.3438C41.9375 52.1898 43.6898 50.4375 45.8438 50.4375ZM31 52.7812C33.5852 52.7812 35.6875 54.8836 35.6875 57.4688C35.6875 60.0539 33.5852 62.1562 31 62.1562C28.4148 62.1562 26.3125 60.0539 26.3125 57.4688C26.3125 54.8836 28.4148 52.7812 31 52.7812ZM16.1562 50.4375C18.3102 50.4375 20.0625 52.1898 20.0625 54.3438C20.0625 56.4977 18.3102 58.25 16.1562 58.25C14.0023 58.25 12.25 56.4977 12.25 54.3438C12.25 52.1898 14.0023 50.4375 16.1562 50.4375ZM9.125 69.1875V62.9375C9.125 60.7836 10.8773 59.0312 13.0312 59.0312H13.3539C14.175 59.5242 15.1312 59.8125 16.1562 59.8125C17.1813 59.8125 18.1375 59.5242 18.9586 59.0312H19.2812C21.4352 59.0312 23.1875 60.7836 23.1875 62.9375V63.1828C21.6984 64.5133 20.8438 66.3906 20.8438 68.4062V69.1875H9.125ZM39.5938 73.875H22.4062V68.4062C22.4062 66.7359 23.1531 65.1813 24.4578 64.1406C25.4242 63.3648 26.6375 62.9375 27.875 62.9375H27.9812C28.8773 63.4344 29.9055 63.7188 31 63.7188C32.0945 63.7188 33.1234 63.4344 34.0187 62.9375H34.125C35.3625 62.9375 36.5758 63.3648 37.5437 64.1422C38.8469 65.1812 39.5938 66.7359 39.5938 68.4062V73.875ZM52.875 69.1875H41.1562V68.4062C41.1562 66.3898 40.3008 64.5117 38.8125 63.1828V62.9375C38.8125 60.7836 40.5648 59.0312 42.7188 59.0312H43.0414C43.8625 59.5242 44.8187 59.8125 45.8438 59.8125C46.8688 59.8125 47.825 59.5242 48.6461 59.0312H48.9688C51.1227 59.0312 52.875 60.7836 52.875 62.9375V69.1875Z" fill="#0E74BC"/>
<path d="M31 65.2812C29.7078 65.2812 28.6562 66.3328 28.6562 67.625C28.6562 68.6422 29.3117 69.5016 30.2188 69.825V72.3125H31.7812V69.825C32.6883 69.5016 33.3438 68.6422 33.3438 67.625C33.3438 66.3328 32.2922 65.2812 31 65.2812ZM31 68.4062C30.5688 68.4062 30.2188 68.0555 30.2188 67.625C30.2188 67.1945 30.5688 66.8438 31 66.8438C31.4312 66.8438 31.7812 67.1945 31.7812 67.625C31.7812 68.0555 31.4312 68.4062 31 68.4062Z" fill="#0E74BC"/>
<path d="M22.4062 40.2812H31.7812V41.0625C31.7812 42.0797 32.4367 42.9391 33.3438 43.2625V46.5312C33.3438 46.8273 33.5109 47.0977 33.7758 47.2305L36.9008 48.793C37.0109 48.8477 37.1305 48.875 37.25 48.875C37.393 48.875 37.5352 48.8359 37.6602 48.7586C37.8906 48.6156 38.0312 48.3648 38.0312 48.0938V43.2625C38.9383 42.9391 39.5938 42.0797 39.5938 41.0625V40.2812C41.7477 40.2812 43.5 38.5289 43.5 36.375C43.5 34.2211 41.7477 32.4688 39.5938 32.4688C39.5672 32.4688 39.5422 32.4758 39.5156 32.4766C39.1555 30.6922 37.5766 29.3438 35.6875 29.3438C35.2055 29.3438 34.7367 29.4422 34.293 29.6125C33.5914 28.4953 32.3617 27.7812 31 27.7812C29.6414 27.7812 28.4039 28.4852 27.7016 29.5992C27.2609 29.4305 26.7914 29.3438 26.3125 29.3438C24.425 29.3438 22.8461 30.6906 22.4852 32.4727C22.4586 32.4727 22.4328 32.4688 22.4062 32.4688C20.2523 32.4688 18.5 34.2211 18.5 36.375C18.5 38.5289 20.2523 40.2812 22.4062 40.2812ZM34.9062 46.0484V43.4062H36.4688V46.8297L34.9062 46.0484ZM38.0312 41.0625C38.0312 41.493 37.6812 41.8438 37.25 41.8438H34.125C33.6938 41.8438 33.3438 41.493 33.3438 41.0625V40.2812H38.0312V41.0625ZM22.4062 34.0312C23.0781 34.0312 23.7195 34.3203 24.1641 34.825L25.3359 33.7914C24.9648 33.3711 24.5125 33.0406 24.0125 32.8148C24.218 31.7305 25.1688 30.9062 26.3125 30.9062C26.7797 30.9062 27.2313 31.0438 27.6195 31.3047C27.8211 31.4406 28.0742 31.475 28.3031 31.3969C28.5336 31.3195 28.7141 31.1406 28.7938 30.9109C29.118 29.9742 30.0047 29.3438 31 29.3438C31.9953 29.3438 32.882 29.9742 33.2117 30.9258C33.2977 31.1609 33.3438 31.425 33.3438 31.6875H34.9062C34.9062 31.4766 34.8859 31.2687 34.8531 31.0664C35.1187 30.9648 35.3992 30.9062 35.6875 30.9062C36.8305 30.9062 37.782 31.7297 37.9875 32.8234C36.6344 33.4383 35.6875 34.7953 35.6875 36.375H37.25C37.25 35.0828 38.3016 34.0312 39.5938 34.0312C40.8859 34.0312 41.9375 35.0828 41.9375 36.375C41.9375 37.6672 40.8859 38.7188 39.5938 38.7188H22.4062C21.1141 38.7188 20.0625 37.6672 20.0625 36.375C20.0625 35.0828 21.1141 34.0312 22.4062 34.0312Z" fill="#0E74BC"/>
<path d="M16.9539 42.0961L15.6781 41.1953C15.386 41.6086 15.1094 42.0352 14.8571 42.4633L16.2031 43.2578C16.4336 42.8648 16.6867 42.475 16.9539 42.0961Z" fill="#0E74BC"/>
<path d="M14.5406 47.0516L13.0438 46.6016C12.9008 47.0781 12.7742 47.5703 12.6696 48.0641L14.1969 48.3914C14.293 47.9383 14.4094 47.4875 14.5406 47.0516Z" fill="#0E74BC"/>
<path d="M15.5477 44.4812L14.1422 43.7969C13.9235 44.2477 13.7196 44.7125 13.5367 45.1789L14.9922 45.7484C15.1594 45.3203 15.3461 44.8937 15.5477 44.4812Z" fill="#0E74BC"/>
<path d="M18.7258 39.9758L17.6086 38.8828C17.261 39.2391 16.9204 39.6148 16.5969 40.0008L17.7961 41.0031C18.093 40.6484 18.4055 40.3031 18.7258 39.9758Z" fill="#0E74BC"/>
<path d="M47.0109 45.7492L48.4664 45.1797C48.2843 44.7133 48.0804 44.2484 47.8609 43.7969L46.4554 44.4813C46.657 44.8961 46.8437 45.3219 47.0109 45.7492Z" fill="#0E74BC"/>
<path d="M47.8047 48.3992L49.332 48.0719C49.2266 47.5789 49.1008 47.0867 48.9578 46.6094L47.4609 47.0586C47.5914 47.4953 47.7078 47.9469 47.8047 48.3992Z" fill="#0E74BC"/>
<path d="M45.7992 43.2656L47.1453 42.4703C46.8914 42.0406 46.6149 41.6141 46.3242 41.2031L45.0485 42.1039C45.3141 42.4812 45.5672 42.8719 45.7992 43.2656Z" fill="#0E74BC"/>
<path d="M44.2055 41.0031L45.4047 40.0023C45.0836 39.6172 44.7422 39.2398 44.3922 38.8828L43.2766 39.9766C43.5985 40.3039 43.9102 40.6492 44.2055 41.0031Z" fill="#0E74BC"/>
<rect x="48.5" width="25" height="38" rx="12.5" fill="#0D6AAB"/>
<path d="M58.0682 16.556C58.1082 15.756 58.3882 15.14 58.9082 14.708C59.4362 14.268 60.1282 14.048 60.9842 14.048C61.5682 14.048 62.0682 14.152 62.4842 14.36C62.9002 14.56 63.2122 14.836 63.4202 15.188C63.6362 15.532 63.7442 15.924 63.7442 16.364C63.7442 16.868 63.6122 17.296 63.3482 17.648C63.0922 17.992 62.7842 18.224 62.4242 18.344V18.392C62.8882 18.536 63.2482 18.792 63.5042 19.16C63.7682 19.528 63.9002 20 63.9002 20.576C63.9002 21.056 63.7882 21.484 63.5642 21.86C63.3482 22.236 63.0242 22.532 62.5922 22.748C62.1682 22.956 61.6562 23.06 61.0562 23.06C60.1522 23.06 59.4162 22.832 58.8482 22.376C58.2802 21.92 57.9802 21.248 57.9482 20.36H59.5802C59.5962 20.752 59.7282 21.068 59.9762 21.308C60.2322 21.54 60.5802 21.656 61.0202 21.656C61.4282 21.656 61.7402 21.544 61.9562 21.32C62.1802 21.088 62.2922 20.792 62.2922 20.432C62.2922 19.952 62.1402 19.608 61.8362 19.4C61.5322 19.192 61.0602 19.088 60.4202 19.088H60.0722V17.708H60.4202C61.5562 17.708 62.1242 17.328 62.1242 16.568C62.1242 16.224 62.0202 15.956 61.8122 15.764C61.6122 15.572 61.3202 15.476 60.9362 15.476C60.5602 15.476 60.2682 15.58 60.0602 15.788C59.8602 15.988 59.7442 16.244 59.7122 16.556H58.0682Z" fill="white"/>
</svg>
