<svg width="74" height="90" viewBox="0 0 74 90" fill="none" xmlns="http://www.w3.org/2000/svg">
<rect x="0.5" y="24.5" width="61" height="65" rx="7.5" fill="#E7F1F8"/>
<rect x="0.5" y="24.5" width="61" height="65" rx="7.5" stroke="#3E90C9"/>
<path fill-rule="evenodd" clip-rule="evenodd" d="M48.226 49.5235H38.8812C38.6106 49.5235 38.3928 49.3048 38.3928 49.0352C38.3932 48.7656 38.6106 48.547 38.8812 48.547L48.226 48.5469C48.4956 48.5469 48.7139 48.7657 48.7139 49.0352C48.7139 49.3047 48.4952 49.5235 48.226 49.5235Z" fill="#0D6AAB"/>
<path fill-rule="evenodd" clip-rule="evenodd" d="M48.226 46.4923H38.8812C38.6106 46.4923 38.3928 46.2736 38.3928 46.004C38.3932 45.7343 38.6106 45.5157 38.8812 45.5157L48.226 45.5156C48.4956 45.5156 48.7139 45.7344 48.7139 46.004C48.7139 46.2736 48.4952 46.4923 48.226 46.4923Z" fill="#0D6AAB"/>
<path fill-rule="evenodd" clip-rule="evenodd" d="M29.4777 46.2109C29.2681 46.2109 29.0981 46.3819 29.0981 46.5914L29.0982 48.459C29.0982 48.6687 29.2681 48.8385 29.4776 48.8385L34.9567 48.8385C35.1663 48.8385 35.3369 48.6687 35.3369 48.4591L35.3371 46.5913C35.3371 46.3818 35.1661 46.2109 34.9565 46.2109L29.4777 46.2109ZM34.9567 49.815H29.4777C28.7302 49.815 28.1216 49.2068 28.1216 48.4591L28.1218 46.5913C28.1218 45.8426 28.7299 45.2344 29.4776 45.2344L34.9567 45.2344C35.7042 45.2344 36.3135 45.8427 36.3135 46.5914V48.459C36.3135 49.2068 35.7042 49.8151 34.9567 49.815Z" fill="#0D6AAB"/>
<path fill-rule="evenodd" clip-rule="evenodd" d="M49.8148 70.5794H48.648C48.3784 70.5794 48.1604 70.3608 48.1604 70.0912C48.1604 69.8216 48.3782 69.6029 48.6478 69.6029H49.8148C50.355 69.6029 50.7931 69.1635 50.7931 68.6243L50.7935 36.588C50.7935 36.0479 50.3547 35.6094 49.8146 35.6094L12.1842 35.6094C11.6454 35.6094 11.2066 36.0479 11.2066 36.588L11.2068 68.6243C11.2068 69.1635 11.645 69.6029 12.1842 69.6029H33.8538C34.1234 69.6029 34.342 69.8217 34.342 70.0912C34.3422 70.3608 34.1233 70.5795 33.8537 70.5795L12.1842 70.5795C11.107 70.5795 10.23 69.7027 10.23 68.6243V36.588C10.23 35.5098 11.1069 34.6329 12.1842 34.6329L49.8146 34.6328C50.8927 34.6328 51.7695 35.5098 51.7695 36.5881L51.7697 68.6244C51.7697 69.7027 50.8928 70.5795 49.8148 70.5794Z" fill="#0D6AAB"/>
<path fill-rule="evenodd" clip-rule="evenodd" d="M51.2816 41.9454H10.7186C10.4481 41.9454 10.2302 41.7267 10.2302 41.4571C10.2302 41.1874 10.4479 40.9688 10.7185 40.9688L51.2815 40.9688C51.5512 40.9688 51.7698 41.1875 51.7698 41.4571C51.77 41.7266 51.5512 41.9454 51.2816 41.9454Z" fill="#0D6AAB"/>
<path fill-rule="evenodd" clip-rule="evenodd" d="M16.6411 38.7041H14.2942C14.0236 38.7041 13.8058 38.4855 13.8058 38.2159C13.8062 37.9453 14.0235 37.7266 14.2941 37.7266L16.6411 37.7266C16.9107 37.7266 17.1292 37.9453 17.1292 38.2159C17.1296 38.4854 16.9105 38.7042 16.6411 38.7041Z" fill="#0D6AAB"/>
<path fill-rule="evenodd" clip-rule="evenodd" d="M21.3346 38.7041H18.9881C18.7171 38.7041 18.4994 38.4855 18.4994 38.2159C18.4996 37.9453 18.7171 37.7266 18.9877 37.7266L21.3346 37.7266C21.6042 37.7266 21.8228 37.9453 21.8228 38.2159C21.823 38.4854 21.604 38.7042 21.3346 38.7041Z" fill="#0D6AAB"/>
<path fill-rule="evenodd" clip-rule="evenodd" d="M26.0285 38.7041H23.6815C23.411 38.7041 23.193 38.4855 23.193 38.2159C23.1931 37.9453 23.4107 37.7266 23.6812 37.7266L26.0285 37.7266C26.2977 37.7266 26.5163 37.9453 26.5163 38.2159C26.5165 38.4854 26.2977 38.7042 26.0281 38.7042L26.0285 38.7041Z" fill="#0D6AAB"/>
<path fill-rule="evenodd" clip-rule="evenodd" d="M47.7061 38.7031H37.2924C37.0228 38.7031 36.8041 38.4845 36.8041 38.2149C36.8045 37.9442 37.0228 37.7266 37.2924 37.7266L47.7061 37.7266C47.9758 37.7266 48.1943 37.9443 48.1943 38.2149C48.1946 38.4844 47.9756 38.7032 47.7061 38.7031Z" fill="#0D6AAB"/>
<path fill-rule="evenodd" clip-rule="evenodd" d="M19.8006 53.8811C18.7487 53.8811 17.8942 53.0266 17.8942 51.9748C17.8945 51.7051 18.1129 51.4865 18.3824 51.4865C18.6521 51.4864 18.8707 51.7052 18.8707 51.9748C18.8709 52.4875 19.2878 52.9046 19.8005 52.9046C20.3124 52.9045 20.7293 52.4875 20.7293 51.9748C20.7295 51.4631 20.3122 51.046 19.8005 51.046C18.7487 51.0459 17.8942 50.1905 17.8942 49.1397C17.8945 48.0888 18.7486 47.2344 19.8005 47.2344C20.8517 47.2344 21.7058 48.0889 21.7058 49.1397C21.7059 49.4092 21.4871 49.628 21.2175 49.628C20.9483 49.6279 20.7293 49.4093 20.7293 49.1397C20.7295 48.6279 20.3122 48.2109 19.8005 48.2109C19.2879 48.2109 18.8707 48.628 18.8707 49.1397C18.8709 49.6524 19.2878 50.0695 19.8005 50.0695C20.8517 50.0694 21.7058 50.9239 21.7058 51.9748C21.7059 53.0266 20.8513 53.8811 19.8006 53.8811Z" fill="#0D6AAB"/>
<path fill-rule="evenodd" clip-rule="evenodd" d="M19.8007 48.2102C19.5301 48.2102 19.3123 47.9915 19.3123 47.722V46.5429C19.3123 46.2734 19.53 46.0547 19.8005 46.0547C20.0703 46.0546 20.2888 46.2734 20.2888 46.543L20.2891 47.7219C20.2891 47.9915 20.0701 48.2103 19.8007 48.2102Z" fill="#0D6AAB"/>
<path fill-rule="evenodd" clip-rule="evenodd" d="M19.8007 55.0618C19.5301 55.0618 19.3123 54.8431 19.3123 54.5735V53.3945C19.3123 53.1249 19.53 52.9063 19.8005 52.9063C20.0703 52.9062 20.2888 53.1249 20.2888 53.3945L20.2891 54.5734C20.2891 54.8431 20.0701 55.0618 19.8007 55.0618Z" fill="#0D6AAB"/>
<path fill-rule="evenodd" clip-rule="evenodd" d="M19.8006 45.0233C16.7468 45.0233 14.2625 47.5076 14.2625 50.5614C14.2625 53.6151 16.7466 56.0993 19.8004 56.0993C22.8534 56.0993 25.3383 53.6151 25.3383 50.5614C25.3386 47.5075 22.8532 45.0234 19.8006 45.0233ZM19.8006 57.0758C16.2076 57.0758 13.2859 54.1533 13.2859 50.5614C13.2861 46.9694 16.2075 44.0469 19.8004 44.0469C23.3926 44.0468 26.3149 46.9694 26.3149 50.5614C26.315 54.1532 23.3923 57.0759 19.8006 57.0758Z" fill="#0D6AAB"/>
<path fill-rule="evenodd" clip-rule="evenodd" d="M40.6938 71.6018C40.4242 71.6018 40.2054 71.3831 40.2054 71.1135L40.2058 62.6184C40.2058 62.1566 39.8301 61.7813 39.3683 61.7813C38.9067 61.7812 38.5301 62.1566 38.5301 62.6184L38.5304 71.1135C38.5304 71.383 38.3123 71.6018 38.0418 71.6018C37.7723 71.6018 37.5535 71.3831 37.5535 71.1135V62.6184C37.5535 61.6185 38.3672 60.8047 39.3683 60.8047C40.3683 60.8047 41.182 61.6185 41.182 62.6184L41.1823 71.1135C41.1823 71.383 40.9633 71.6018 40.6938 71.6018Z" fill="#0D6AAB"/>
<path fill-rule="evenodd" clip-rule="evenodd" d="M43.345 71.6016C43.0758 71.6016 42.8567 71.3829 42.8567 71.1133L42.8569 67.7746C42.8569 67.3129 42.4813 66.9375 42.0194 66.9375C41.5578 66.9375 41.1823 67.3129 41.1823 67.7747L41.1825 71.1133C41.1825 71.3828 40.9635 71.6016 40.694 71.6016C40.4244 71.6015 40.2057 71.3829 40.2057 71.1133L40.206 67.7746C40.206 66.7746 41.0195 65.9609 42.0194 65.9609C43.0195 65.9609 43.8332 66.7747 43.8332 67.7747L43.8334 71.1133C43.8334 71.3828 43.6156 71.6016 43.345 71.6016Z" fill="#0D6AAB"/>
<path fill-rule="evenodd" clip-rule="evenodd" d="M45.9972 71.6016C45.7276 71.6016 45.5086 71.3829 45.5086 71.1133L45.5088 67.7746C45.5088 67.3129 45.1333 66.9375 44.6715 66.9375C44.2097 66.9375 43.8332 67.3129 43.8332 67.7747L43.8334 71.1133C43.8334 71.3828 43.6156 71.6016 43.3449 71.6016C43.0758 71.6015 42.8567 71.3829 42.8567 71.1133L42.8569 67.7746C42.8569 66.7746 43.6704 65.9609 44.6715 65.9609C45.6717 65.9609 46.4852 66.7747 46.4852 67.7747L46.4856 71.1133C46.4856 71.3828 46.2665 71.6016 45.9972 71.6016Z" fill="#0D6AAB"/>
<path fill-rule="evenodd" clip-rule="evenodd" d="M45.6267 79.3602H39.5445C37.0515 79.3602 36.0054 76.1935 35.2424 73.8823C35.1215 73.5181 35.0074 73.1733 34.9006 72.8793L32.8551 69.3362C32.2908 68.3595 32.6271 67.1053 33.6036 66.5408C34.076 66.2692 34.6269 66.1969 35.1559 66.3383C35.6851 66.4808 36.1264 66.8185 36.399 67.2905L38.465 70.8691C38.6006 71.1032 38.52 71.4012 38.286 71.5365C38.053 71.6708 37.7541 71.5915 37.6197 71.3575L35.5528 67.7788C35.4113 67.5326 35.1803 67.3566 34.9026 67.2824C34.6262 67.208 34.3381 67.2447 34.0919 67.3871C33.5816 67.682 33.4053 68.3372 33.7002 68.8479L35.7665 72.4265C35.7807 72.4509 35.7917 72.4754 35.8019 72.5019C35.9199 72.8192 36.0409 73.1865 36.1691 73.5761C36.8395 75.6045 37.7571 78.3836 39.5444 78.3836L45.6267 78.3836C47.0234 78.3836 48.1605 77.2474 48.1605 75.8497V67.7746C48.1605 67.3129 47.7842 66.9375 47.3223 66.9375C46.8605 66.9375 46.4851 67.3129 46.4851 67.7747L46.4855 71.1133C46.4855 71.3828 46.2664 71.6016 45.9968 71.6016C45.7274 71.6015 45.5085 71.3829 45.5085 71.1133L45.5086 67.7746C45.5086 66.7746 46.3224 65.9609 47.3223 65.9609C48.3235 65.9609 49.1362 66.7747 49.1362 67.7747L49.1365 75.8496C49.1365 77.7855 47.5624 79.3602 45.6267 79.3602Z" fill="#0D6AAB"/>
<path fill-rule="evenodd" clip-rule="evenodd" d="M48.2259 56.5234H28.6103C28.3406 56.5234 28.1216 56.3048 28.1216 56.0352C28.1218 55.7656 28.3403 55.5469 28.6099 55.5469L48.2259 55.5469C48.4955 55.5469 48.7138 55.7656 48.7138 56.0352C48.7139 56.3047 48.4951 56.5235 48.2259 56.5234Z" fill="#0D6AAB"/>
<path fill-rule="evenodd" clip-rule="evenodd" d="M48.226 53.0937H28.6103C28.3406 53.0937 28.1216 52.8751 28.1216 52.6055C28.1218 52.3359 28.3403 52.1172 28.6099 52.1172H48.226C48.4956 52.1172 48.7139 52.3359 48.7139 52.6055C48.7139 52.875 48.4952 53.0938 48.226 53.0937Z" fill="#0D6AAB"/>
<path fill-rule="evenodd" clip-rule="evenodd" d="M33.1329 64.7656H13.7746C13.504 64.7656 13.2859 64.5469 13.2859 64.2774C13.2861 64.0067 13.5036 63.7891 13.7742 63.7891L33.1329 63.7891C33.4022 63.7891 33.6208 64.0068 33.6208 64.2774C33.621 64.5469 33.4022 64.7656 33.1326 64.7656L33.1329 64.7656Z" fill="#0D6AAB"/>
<path fill-rule="evenodd" clip-rule="evenodd" d="M33.1329 61.3437H13.7746C13.504 61.3437 13.2859 61.1251 13.2859 60.8555C13.2861 60.5848 13.5036 60.3672 13.7742 60.3672L33.1329 60.3672C33.4022 60.3672 33.6208 60.5849 33.6208 60.8555C33.621 61.125 33.4022 61.3438 33.1326 61.3438L33.1329 61.3437Z" fill="#0D6AAB"/>
<rect x="48.5" width="25" height="38" rx="12.5" fill="#0D6AAB"/>
<path d="M58.7187 21.104C59.4867 20.464 60.0987 19.932 60.5547 19.508C61.0107 19.076 61.3907 18.628 61.6947 18.164C61.9987 17.7 62.1507 17.244 62.1507 16.796C62.1507 16.388 62.0547 16.068 61.8627 15.836C61.6707 15.604 61.3747 15.488 60.9747 15.488C60.5747 15.488 60.2667 15.624 60.0507 15.896C59.8347 16.16 59.7227 16.524 59.7147 16.988H58.0827C58.1147 16.028 58.3987 15.3 58.9347 14.804C59.4787 14.308 60.1667 14.06 60.9987 14.06C61.9107 14.06 62.6107 14.304 63.0987 14.792C63.5867 15.272 63.8307 15.908 63.8307 16.7C63.8307 17.324 63.6627 17.92 63.3267 18.488C62.9907 19.056 62.6067 19.552 62.1747 19.976C61.7427 20.392 61.1787 20.896 60.4827 21.488H64.0227V22.88H58.0947V21.632L58.7187 21.104Z" fill="white"/>
</svg>
