<svg width="75" height="81" viewBox="0 0 75 81" fill="none" xmlns="http://www.w3.org/2000/svg">
<rect x="0.5" y="24.5" width="61.026" height="55.7266" rx="7.5" fill="#E7F1F8"/>
<rect x="0.5" y="24.5" width="61.026" height="55.7266" rx="7.5" stroke="#3E90C9"/>
<path d="M13.3011 72.7266H53.6605C54.2821 72.7266 54.8782 72.4796 55.3178 72.0401C55.7573 71.6006 56.0042 71.0044 56.0042 70.3828C56.0042 69.7612 55.7573 69.1651 55.3178 68.7255C54.8782 68.286 54.2821 68.0391 53.6605 68.0391H53.3324C51.4027 65.9219 52.8089 63.6016 53.3324 62.8516H53.6605C53.9686 62.8539 54.2739 62.7942 54.5585 62.6761C54.843 62.558 55.1009 62.3839 55.3167 62.1641C55.6523 61.8376 55.8823 61.4181 55.9773 60.9597C56.0723 60.5013 56.0278 60.025 55.8496 59.5921C55.6714 59.1592 55.3676 58.7896 54.9775 58.5309C54.5873 58.2722 54.1286 58.1363 53.6605 58.1406H51.3714C51.6236 57.9472 51.8636 57.7385 52.0902 57.5156C53.0748 56.532 53.7572 55.287 54.0568 53.9279C54.3563 52.5688 54.2605 51.1523 53.7807 49.8459C53.3008 48.5395 52.457 47.3977 51.3489 46.5556C50.2409 45.7135 48.9149 45.2062 47.5277 45.0938C47.6395 44.8182 47.6978 44.5239 47.6996 44.2266C47.6996 43.605 47.4526 43.0088 47.0131 42.5693C46.5735 42.1297 45.9774 41.8828 45.3558 41.8828H45.0277C43.098 39.7656 44.4964 37.4453 45.0277 36.6875H45.3246C45.9462 36.6875 46.5423 36.4406 46.9818 36.001C47.4214 35.5615 47.6683 34.9654 47.6683 34.3438C47.6683 33.7221 47.4214 33.126 46.9818 32.6865C46.5423 32.2469 45.9462 32 45.3246 32H17.9808C16.4585 31.9993 14.9743 32.4758 13.7368 33.3624C12.4994 34.249 11.5709 35.5012 11.0821 36.9429C10.5932 38.3845 10.5684 39.9432 11.0113 41.3996C11.4542 42.856 12.3424 44.1371 13.5511 45.0625H11.0121C10.3905 45.0625 9.79431 45.3094 9.35477 45.749C8.91523 46.1885 8.6683 46.7846 8.6683 47.4063C8.6683 48.0279 8.91523 48.624 9.35477 49.0635C9.79431 49.5031 10.3905 49.75 11.0121 49.75H11.3167C11.8714 50.5313 13.2699 52.8281 11.3167 54.9375H11.0121C10.3945 54.938 9.80209 55.1823 9.36362 55.6172C9.12634 55.8529 8.94225 56.1366 8.82373 56.4494C8.70521 56.7621 8.65499 57.0966 8.67645 57.4304C8.69791 57.7641 8.79055 58.0894 8.94816 58.3844C9.10576 58.6794 9.32467 58.9373 9.59018 59.1406C9.06397 59.4517 8.57848 59.827 8.14487 60.2578C7.12193 61.2768 6.42468 62.5767 6.14153 63.9925C5.85839 65.4083 6.00211 66.8763 6.55447 68.2104C7.10683 69.5444 8.04294 70.6843 9.24407 71.4856C10.4452 72.2868 11.8573 72.7133 13.3011 72.7109V72.7266ZM53.6605 59.6484C53.8822 59.6484 54.0948 59.7365 54.2516 59.8933C54.4084 60.05 54.4964 60.2627 54.4964 60.4844C54.497 60.5951 54.4751 60.7048 54.4322 60.8068C54.3892 60.9089 54.326 61.0012 54.2464 61.0781C54.1711 61.1572 54.0801 61.2196 53.9791 61.2613C53.8782 61.303 53.7697 61.3231 53.6605 61.3203H47.4574V59.6484H53.6605ZM51.4496 68.0234H13.6371C13.2955 68.0229 12.9575 67.9534 12.6433 67.8192C12.3292 67.6849 12.0454 67.4887 11.8089 67.2422C11.4459 66.8799 11.1984 66.4181 11.0978 65.9152C10.9971 65.4123 11.0479 64.8909 11.2435 64.4168C11.4392 63.9427 11.771 63.5372 12.197 63.2517C12.623 62.9661 13.1242 62.8133 13.6371 62.8125H38.3714V65.4844C38.3782 65.6173 38.4188 65.7463 38.4895 65.8591C38.5601 65.9719 38.6584 66.0648 38.775 66.129C38.8916 66.1932 39.0227 66.2265 39.1558 66.2258C39.2889 66.2251 39.4196 66.1904 39.5355 66.125L42.9183 63.9766L46.2933 66.125C46.4154 66.2007 46.5559 66.2412 46.6996 66.2422C46.9068 66.2422 47.1055 66.1599 47.252 66.0134C47.3985 65.8669 47.4808 65.6681 47.4808 65.4609V62.8359H51.5824C51.1142 63.6155 50.8558 64.5031 50.8326 65.4122C50.8093 66.3213 51.0219 67.2209 51.4496 68.0234ZM13.1058 49.7656H46.6292C47.2406 49.7669 47.8319 49.9841 48.2987 50.3789C48.7655 50.7737 49.0778 51.3207 49.1806 51.9233C49.2834 52.526 49.17 53.1456 48.8604 53.6728C48.5508 54.1999 48.065 54.6008 47.4886 54.8047V54.0234C47.4886 53.8162 47.4063 53.6175 47.2598 53.471C47.1133 53.3245 46.9146 53.2422 46.7074 53.2422H39.1292C38.922 53.2422 38.7233 53.3245 38.5768 53.471C38.4303 53.6175 38.348 53.8162 38.348 54.0234V54.9375H13.2152C13.6435 54.1389 13.8585 53.2432 13.8394 52.3372C13.8202 51.4312 13.5675 50.5454 13.1058 49.7656ZM45.9183 55.6875V58.8984V62.0234V64.0625L43.3011 62.3984C43.179 62.3228 43.0385 62.2822 42.8949 62.2813C42.7513 62.2822 42.6107 62.3228 42.4886 62.3984L39.8636 64.0625V54.7969H45.9183V55.6641V55.6875ZM12.1839 39.2813C12.1881 37.75 12.7987 36.2827 13.8823 35.2006C14.9658 34.1186 16.4339 33.5099 17.9652 33.5078H45.3089C45.425 33.4966 45.5421 33.5097 45.6527 33.5464C45.7634 33.5831 45.8652 33.6425 45.9515 33.7209C46.0378 33.7992 46.1068 33.8948 46.154 34.0014C46.2012 34.108 46.2256 34.2233 46.2256 34.3398C46.2256 34.4564 46.2012 34.5717 46.154 34.6783C46.1068 34.7849 46.0378 34.8805 45.9515 34.9588C45.8652 35.0372 45.7634 35.0966 45.6527 35.1333C45.5421 35.17 45.425 35.1831 45.3089 35.1719H18.3246C17.2647 35.2181 16.2635 35.6716 15.5298 36.438C14.7962 37.2043 14.3867 38.2243 14.3867 39.2852C14.3867 40.3461 14.7962 41.366 15.5298 42.1323C16.2635 42.8987 17.2647 43.3522 18.3246 43.3984H45.348C45.4574 43.3974 45.5659 43.4181 45.6673 43.4592C45.7687 43.5004 45.8609 43.5612 45.9386 43.6382C46.0163 43.7152 46.078 43.8069 46.1202 43.9078C46.1623 44.0088 46.1839 44.1172 46.1839 44.2266C46.1819 44.4463 46.0943 44.6566 45.9396 44.8127C45.785 44.9688 45.5755 45.0584 45.3558 45.0625H17.9417C16.4172 45.0481 14.9599 44.4329 13.8863 43.3505C12.8127 42.2681 12.2094 40.8058 12.2074 39.2813H12.1839ZM43.1214 41.8828H18.3246C17.6602 41.8464 17.0351 41.5568 16.5778 41.0736C16.1204 40.5905 15.8655 39.9505 15.8655 39.2852C15.8655 38.6199 16.1204 37.9798 16.5778 37.4967C17.0351 37.0135 17.6602 36.7239 18.3246 36.6875H43.2542C42.7897 37.4706 42.5355 38.3605 42.5164 39.2708C42.4972 40.1811 42.7137 41.0809 43.1449 41.8828H43.1214ZM11.723 48.25H11.0121C10.9016 48.25 10.7923 48.2281 10.6903 48.1856C10.5884 48.1431 10.4959 48.0809 10.4182 48.0024C10.3405 47.924 10.279 47.8309 10.2375 47.7285C10.1959 47.6262 10.1751 47.5167 10.1761 47.4063C10.1821 47.1872 10.2723 46.9788 10.428 46.8246C10.5837 46.6703 10.7929 46.5821 11.0121 46.5781H46.9496C48.455 46.5482 49.9125 47.1076 51.0114 48.137C52.1103 49.1664 52.7635 50.5844 52.8318 52.0886C52.9001 53.5928 52.378 55.0641 51.3769 56.1889C50.3758 57.3136 48.9749 58.0028 47.473 58.1094V56.3594C48.4595 56.1449 49.3322 55.5741 49.9241 54.7563C50.516 53.9385 50.7855 52.9311 50.681 51.927C50.5766 50.9229 50.1054 49.9926 49.3579 49.3142C48.6103 48.6357 47.6387 48.2568 46.6292 48.25H11.723ZM10.4339 56.7031C10.509 56.6264 10.5991 56.5661 10.6986 56.5257C10.798 56.4854 10.9048 56.466 11.0121 56.4687H38.3558V58.1406H11.0121C10.7903 58.1406 10.5777 58.0526 10.421 57.8958C10.2642 57.739 10.1761 57.5264 10.1761 57.3047C10.173 57.1917 10.1945 57.0795 10.239 56.9756C10.2835 56.8718 10.35 56.7788 10.4339 56.7031ZM9.21518 61.3438C9.7511 60.8061 10.3879 60.3796 11.0891 60.0886C11.7903 59.7977 12.542 59.6481 13.3011 59.6484H38.3714V61.3203H13.6371C12.5461 61.3203 11.4999 61.7537 10.7285 62.5251C9.95713 63.2965 9.52377 64.3427 9.52377 65.4336C9.52377 66.5245 9.95713 67.5707 10.7285 68.3421C11.4999 69.1135 12.5461 69.5469 13.6371 69.5469H53.6605C53.8822 69.5469 54.0948 69.6349 54.2516 69.7917C54.4084 69.9485 54.4964 70.1611 54.4964 70.3828C54.4924 70.6025 54.4028 70.812 54.2466 70.9666C54.0905 71.1213 53.8802 71.2089 53.6605 71.2109H13.3011C12.1583 71.2101 11.0413 70.8706 10.0913 70.2353C9.14136 69.6 8.40099 68.6974 7.96376 67.6415C7.52652 66.5856 7.41204 65.4239 7.63478 64.3029C7.85751 63.182 8.40747 62.1523 9.21518 61.3438Z" fill="#0E74BC"/>
<rect x="49.513" width="25" height="38" rx="12.5" fill="#0D6AAB"/>
<path d="M60.2712 15.8V14.252H63.1632V23H61.4352V15.8H60.2712Z" fill="white"/>
</svg>
