<svg width="73" height="85" viewBox="0 0 73 85" fill="none" xmlns="http://www.w3.org/2000/svg">
<rect x="0.5" y="19.5" width="61" height="65" rx="7.5" fill="#E7F1F8"/>
<rect x="0.5" y="19.5" width="61" height="65" rx="7.5" stroke="#3E90C9"/>
<path d="M35.8634 53.3007C35.7229 53.3008 35.5848 53.2639 35.4631 53.1937C35.3413 53.1235 35.2402 53.0224 35.1699 52.9007L34.5739 51.8682C33.3968 52.1089 32.1831 52.1089 31.0059 51.8682L30.4099 52.9007C30.3574 52.9917 30.2875 53.0715 30.2041 53.1355C30.1208 53.1995 30.0256 53.2464 29.9241 53.2736C29.8226 53.3009 29.7168 53.3078 29.6126 53.2941C29.5084 53.2804 29.4079 53.2463 29.3169 53.1937L26.5254 51.5817C26.4331 51.5299 26.352 51.4603 26.2867 51.3769C26.2215 51.2935 26.1735 51.1979 26.1454 51.0958C26.1174 50.9937 26.1099 50.887 26.1234 50.782C26.1369 50.677 26.1711 50.5757 26.2241 50.484C26.277 50.3923 26.3477 50.312 26.4319 50.2478C26.5161 50.1836 26.6122 50.1368 26.7146 50.11C26.8171 50.0832 26.9238 50.0771 27.0287 50.0919C27.1335 50.1067 27.2344 50.1421 27.3254 50.1962L29.4254 51.4077L29.9194 50.5507C30.0085 50.3966 30.1464 50.2766 30.3113 50.2097C30.4762 50.1428 30.6587 50.1328 30.8299 50.1812C32.112 50.5399 33.4679 50.5399 34.7499 50.1812C34.9211 50.1329 35.1035 50.143 35.2683 50.2099C35.4331 50.2768 35.5709 50.3967 35.6599 50.5507L36.1554 51.4097L38.1844 50.2382L37.6879 49.3777C37.5991 49.2237 37.5641 49.0445 37.5885 48.8684C37.6128 48.6923 37.6952 48.5293 37.8224 48.4052C38.7765 47.477 39.4551 46.3028 39.7829 45.0127C39.8267 44.8402 39.9267 44.6872 40.0671 44.5779C40.2076 44.4686 40.3805 44.4092 40.5584 44.4092H41.5499V42.0657H40.5584C40.3805 42.0657 40.2076 42.0064 40.0671 41.8971C39.9267 41.7878 39.8267 41.6347 39.7829 41.4622C39.4553 40.172 38.7767 38.9978 37.8224 38.0697C37.695 37.9456 37.6126 37.7825 37.5883 37.6063C37.5639 37.4301 37.599 37.2508 37.6879 37.0967L38.1844 36.2367L36.1554 35.0652L35.6599 35.9237C35.571 36.0777 35.4333 36.1977 35.2686 36.2647C35.1039 36.3317 34.9216 36.3419 34.7504 36.2937C33.4681 35.9344 32.1117 35.9344 30.8294 36.2937C30.6582 36.342 30.4758 36.3318 30.311 36.2648C30.1462 36.1978 30.0084 36.0778 29.9194 35.9237L29.4239 35.0652L27.3959 36.2367L27.8924 37.0967C27.9813 37.2508 28.0163 37.4302 27.9919 37.6064C27.9674 37.7826 27.8849 37.9456 27.7574 38.0697C26.8031 38.9975 26.1245 40.1716 25.7969 41.4617C25.7533 41.6343 25.6534 41.7875 25.5129 41.8969C25.3724 42.0063 25.1995 42.0657 25.0214 42.0657H24.0294V44.4462C24.0294 44.6584 23.9452 44.8619 23.7951 45.0119C23.6451 45.1619 23.4416 45.2462 23.2294 45.2462C23.0173 45.2462 22.8138 45.1619 22.6638 45.0119C22.5137 44.8619 22.4294 44.6584 22.4294 44.4462V41.2657C22.4294 41.0535 22.5137 40.8501 22.6638 40.7C22.8138 40.55 23.0173 40.4657 23.2294 40.4657H24.4219C24.7999 39.3253 25.4074 38.2744 26.2069 37.3777L25.6099 36.3437C25.5574 36.2527 25.5233 36.1522 25.5096 36.0481C25.4959 35.9439 25.5028 35.838 25.53 35.7365C25.5572 35.635 25.6042 35.5399 25.6682 35.4565C25.7321 35.3732 25.8119 35.3032 25.9029 35.2507L29.3169 33.2792C29.4079 33.2266 29.5084 33.1925 29.6125 33.1788C29.7167 33.165 29.8225 33.1719 29.924 33.1991C30.0255 33.2262 30.1207 33.2731 30.2041 33.3371C30.2874 33.401 30.3574 33.4807 30.4099 33.5717L31.0059 34.6047C32.183 34.3642 33.3964 34.3642 34.5734 34.6047L35.1699 33.5717C35.2225 33.4807 35.2925 33.401 35.3758 33.3371C35.4592 33.2731 35.5544 33.2262 35.6559 33.1991C35.7574 33.1719 35.8632 33.165 35.9674 33.1788C36.0715 33.1925 36.172 33.2266 36.2629 33.2792L39.6774 35.2507C39.861 35.3569 39.995 35.5316 40.0498 35.7364C40.1047 35.9413 40.076 36.1595 39.9699 36.3432L39.3729 37.3772C40.1726 38.2738 40.7801 39.3248 41.1579 40.4652H42.3499C42.5621 40.4652 42.7656 40.5495 42.9156 40.6995C43.0657 40.8496 43.1499 41.053 43.1499 41.2652V45.2087C43.1499 45.4209 43.0657 45.6244 42.9156 45.7744C42.7656 45.9244 42.5621 46.0087 42.3499 46.0087H41.1579C40.7796 47.1488 40.1721 48.1994 39.3729 49.0962L39.9699 50.1307C40.0225 50.2217 40.0566 50.3222 40.0703 50.4264C40.084 50.5305 40.0771 50.6364 40.0499 50.7379C40.0227 50.8394 39.9757 50.9346 39.9117 51.0179C39.8477 51.1013 39.768 51.1712 39.6769 51.2237L36.2624 53.1947C36.141 53.2643 36.0034 53.3009 35.8634 53.3007Z" fill="#0E74BC"/>
<path d="M32.7905 48.4301C31.7629 48.4302 30.7583 48.1255 29.9038 47.5547C29.0494 46.9838 28.3834 46.1724 27.9901 45.223C27.5968 44.2737 27.4938 43.229 27.6943 42.2211C27.8947 41.2132 28.3896 40.2874 29.1162 39.5608C29.8428 38.8342 30.7686 38.3393 31.7765 38.1389C32.7844 37.9384 33.8291 38.0413 34.7784 38.4346C35.7278 38.8279 36.5392 39.4939 37.1101 40.3484C37.6809 41.2029 37.9856 42.2074 37.9855 43.2351C37.9842 44.6125 37.4364 45.9331 36.4624 46.907C35.4885 47.881 34.1679 48.4287 32.7905 48.4301ZM32.7905 39.6396C32.0793 39.6395 31.3841 39.8503 30.7928 40.2453C30.2015 40.6403 29.7405 41.2018 29.4683 41.8588C29.1961 42.5158 29.1248 43.2387 29.2635 43.9362C29.4022 44.6337 29.7446 45.2744 30.2474 45.7773C30.7502 46.2802 31.3909 46.6227 32.0884 46.7614C32.7858 46.9002 33.5088 46.829 34.1658 46.5569C34.8228 46.2848 35.3844 45.824 35.7795 45.2327C36.1746 44.6414 36.3855 43.9462 36.3855 43.2351C36.3843 42.2819 36.0052 41.3682 35.3313 40.6942C34.6573 40.0201 33.7436 39.6409 32.7905 39.6396Z" fill="#0E74BC"/>
<path d="M41.3001 70.8246H37.6651C37.4529 70.8246 37.2494 70.7403 37.0994 70.5903C36.9494 70.4403 36.8651 70.2368 36.8651 70.0246V62.4246H36.3466C36.2061 62.4247 36.0681 62.3877 35.9465 62.3175C35.8249 62.2473 35.7238 62.1463 35.6536 62.0247C35.5834 61.9031 35.5464 61.7651 35.5464 61.6247C35.5464 61.4842 35.5833 61.3463 35.6536 61.2246L38.7906 55.7906C38.8608 55.669 38.9618 55.568 39.0835 55.4978C39.2051 55.4275 39.3431 55.3906 39.4836 55.3906C39.624 55.3906 39.762 55.4275 39.8837 55.4978C40.0053 55.568 40.1063 55.669 40.1766 55.7906L43.3136 61.2246C43.3838 61.3463 43.4208 61.4842 43.4207 61.6247C43.4207 61.7651 43.3838 61.9031 43.3135 62.0247C43.2433 62.1463 43.1423 62.2473 43.0206 62.3175C42.899 62.3877 42.761 62.4247 42.6206 62.4246H42.1001V70.0246C42.1001 70.2368 42.0158 70.4403 41.8658 70.5903C41.7157 70.7403 41.5122 70.8246 41.3001 70.8246ZM38.4651 69.2246H40.5001V61.6246C40.4994 61.4232 40.5748 61.2289 40.7111 61.0806C40.8475 60.9323 41.0348 60.8409 41.2356 60.8246L39.4826 57.7881L37.7296 60.8246C37.9304 60.8409 38.1177 60.9323 38.254 61.0806C38.3903 61.2289 38.4657 61.4232 38.4651 61.6246V69.2246Z" fill="#0E74BC"/>
<path d="M49.6805 70.827H46.0455C45.8333 70.827 45.6298 70.7427 45.4798 70.5927C45.3297 70.4427 45.2455 70.2392 45.2455 70.027V58.1115H44.726C44.5855 58.1115 44.4475 58.0746 44.3259 58.0044C44.2043 57.9342 44.1032 57.8332 44.033 57.7116C43.9628 57.59 43.9258 57.452 43.9258 57.3115C43.9258 57.1711 43.9627 57.0331 44.033 56.9115L47.17 51.478C47.2402 51.3564 47.3412 51.2555 47.4628 51.1853C47.5844 51.1151 47.7223 51.0781 47.8627 51.0781C48.0031 51.0781 48.141 51.1151 48.2626 51.1853C48.3843 51.2555 48.4852 51.3564 48.5555 51.478L50.1245 54.1945L51.693 56.9115C51.7632 57.0331 51.8001 57.1711 51.8001 57.3115C51.8001 57.452 51.7632 57.59 51.6929 57.7116C51.6227 57.8332 51.5217 57.9342 51.4 58.0044C51.2784 58.0746 51.1404 58.1115 51 58.1115H50.4805V70.027C50.4805 70.2392 50.3962 70.4427 50.2461 70.5927C50.0961 70.7427 49.8926 70.827 49.6805 70.827ZM46.8455 69.227H48.8805V57.3115C48.8798 57.11 48.9552 56.9158 49.0915 56.7675C49.2279 56.6191 49.4152 56.5277 49.616 56.5115L47.863 53.4755L46.11 56.514C46.3108 56.5302 46.498 56.6216 46.6344 56.77C46.7707 56.9183 46.8461 57.1125 46.8455 57.314V69.227Z" fill="#0E74BC"/>
<path d="M33.255 70.8314H11C10.8911 70.8316 10.7833 70.8095 10.6832 70.7665C10.5831 70.7236 10.4928 70.6606 10.418 70.5816C10.3431 70.5025 10.2851 70.409 10.2476 70.3067C10.2101 70.2045 10.1939 70.0956 10.2 69.9869L10.6435 62.0484C10.6435 62.0419 10.6435 62.0349 10.6435 62.0284C10.7389 60.8333 11.2088 59.6988 11.9861 58.7862C12.7635 57.8735 13.8088 57.2292 14.9735 56.9449L18.0385 56.1949C18.2445 56.1444 18.4622 56.1778 18.6437 56.2878C18.8251 56.3978 18.9554 56.5753 19.006 56.7814C19.0565 56.9875 19.0231 57.2052 18.9131 57.3866C18.8031 57.568 18.6255 57.6984 18.4195 57.7489L15.354 58.4989C14.5173 58.7031 13.7661 59.1655 13.207 59.8207C12.648 60.4759 12.3094 61.2905 12.2395 62.1489L11.844 69.2324H32.409L32.0135 62.1479C31.9435 61.2895 31.605 60.4749 31.0459 59.8197C30.4869 59.1645 29.7357 58.7021 28.899 58.4979L25.8325 57.7479C25.6284 57.6956 25.4532 57.5649 25.3449 57.3841C25.2367 57.2034 25.204 56.9873 25.2541 56.7827C25.3042 56.5781 25.433 56.4015 25.6125 56.2912C25.7921 56.181 26.0078 56.146 26.213 56.1939L29.2795 56.9439C30.444 57.2282 31.4893 57.8724 32.2667 58.785C33.044 59.6975 33.5139 60.8319 33.6095 62.0269V62.0469L34.0525 69.9854C34.0585 70.0941 34.0423 70.203 34.0048 70.3052C33.9674 70.4075 33.9094 70.501 33.8345 70.5801C33.7596 70.6591 33.6693 70.7221 33.5693 70.765C33.4692 70.808 33.3614 70.8301 33.2525 70.8299L33.255 70.8314Z" fill="#0E74BC"/>
<path d="M22.1276 61.9362H22.1251C21.6202 61.937 21.1233 61.8106 20.6801 61.5689C20.2369 61.3271 19.8617 60.9776 19.5891 60.5527L17.5586 57.4027C17.481 57.2824 17.4371 57.1435 17.4315 57.0005C17.4259 56.8575 17.4588 56.7156 17.5267 56.5896C17.5946 56.4636 17.6951 56.3581 17.8177 56.2842C17.9403 56.2102 18.0804 56.1706 18.2236 56.1692C18.3856 56.1327 18.8076 55.7572 18.9496 54.4087C18.959 54.303 18.9893 54.2002 19.0389 54.1064C19.0884 54.0125 19.1561 53.9294 19.2381 53.862C19.32 53.7945 19.4146 53.744 19.5162 53.7135C19.6179 53.683 19.7246 53.673 19.8302 53.6841C19.9357 53.6952 20.038 53.7272 20.1311 53.7782C20.2241 53.8293 20.3061 53.8983 20.3722 53.9814C20.4384 54.0644 20.4873 54.1598 20.5162 54.2619C20.5451 54.364 20.5534 54.4709 20.5406 54.5762C20.4076 55.8442 20.0276 56.7587 19.4121 57.2932L19.3991 57.3042L20.9336 59.6837C21.0621 59.8834 21.2387 60.0477 21.4472 60.1615C21.6556 60.2752 21.8893 60.3348 22.1268 60.3348C22.3643 60.3348 22.598 60.2752 22.8065 60.1615C23.0149 60.0477 23.1915 59.8834 23.3201 59.6837L24.8546 57.3042L24.8421 57.2932C24.2261 56.7587 23.8461 55.8432 23.7131 54.5762C23.7003 54.4709 23.7085 54.364 23.7374 54.2619C23.7663 54.1598 23.8153 54.0644 23.8814 53.9814C23.9475 53.8983 24.0295 53.8293 24.1225 53.7782C24.2156 53.7272 24.3179 53.6952 24.4235 53.6841C24.529 53.673 24.6357 53.683 24.7374 53.7135C24.839 53.744 24.9336 53.7945 25.0156 53.862C25.0975 53.9294 25.1652 54.0125 25.2148 54.1064C25.2643 54.2002 25.2946 54.303 25.3041 54.4087C25.4261 55.5677 25.7541 55.9672 25.8911 56.0852C25.931 56.1231 25.9788 56.1516 26.0311 56.1687C26.0391 56.1687 26.0246 56.1687 26.0166 56.1687H25.9716L26.0216 56.9687L26.6951 57.4027L24.6651 60.5527C24.3924 60.9777 24.0172 61.3272 23.574 61.569C23.1309 61.8109 22.6339 61.9373 22.1291 61.9367L22.1276 61.9362Z" fill="#0E74BC"/>
<path d="M14.6325 70.8282C14.616 70.8282 14.599 70.8282 14.5825 70.8282C14.4773 70.8218 14.3745 70.7948 14.2799 70.7486C14.1852 70.7024 14.1006 70.6379 14.0309 70.559C13.9613 70.48 13.9079 70.388 13.8738 70.2884C13.8397 70.1887 13.8257 70.0833 13.8325 69.9782L14.308 62.3282C14.3212 62.1164 14.4181 61.9186 14.5772 61.7782C14.7363 61.6378 14.9447 61.5664 15.1565 61.5797C15.3682 61.593 15.5661 61.6898 15.7064 61.8489C15.8468 62.008 15.9182 62.2164 15.905 62.4282L15.4295 70.0782C15.4168 70.2811 15.3273 70.4715 15.1793 70.6108C15.0312 70.7501 14.8357 70.8278 14.6325 70.8282Z" fill="#0E74BC"/>
<path d="M29.6225 70.8282C29.4187 70.8286 29.2225 70.7512 29.0738 70.6118C28.9251 70.4724 28.8353 70.2816 28.8225 70.0782L28.347 62.4282C28.3405 62.3233 28.3546 62.2182 28.3887 62.1188C28.4227 62.0194 28.476 61.9277 28.5455 61.8489C28.615 61.7701 28.6994 61.7058 28.7938 61.6596C28.8881 61.6134 28.9907 61.5863 29.0955 61.5797C29.2004 61.5731 29.3055 61.5873 29.4049 61.6213C29.5043 61.6554 29.596 61.7087 29.6748 61.7782C29.7536 61.8477 29.8179 61.9321 29.8641 62.0264C29.9103 62.1208 29.9375 62.2233 29.944 62.3282L30.4195 69.9782C30.4263 70.0833 30.4123 70.1887 30.3782 70.2884C30.3441 70.388 30.2907 70.48 30.221 70.5589C30.1514 70.6379 30.0668 70.7024 29.9721 70.7486C29.8775 70.7948 29.7747 70.8218 29.6695 70.8282C29.656 70.8277 29.639 70.8282 29.6225 70.8282Z" fill="#0E74BC"/>
<path d="M22.1275 56.0019C20.614 56.0019 19.1775 55.3359 18.0775 54.1269C17.0365 52.9769 16.4395 51.4574 16.4395 49.9529V49.2089C16.4395 48.4623 16.5865 47.723 16.8722 47.0332C17.158 46.3434 17.5768 45.7166 18.1047 45.1887C18.6326 44.6607 19.2594 44.2419 19.9492 43.9562C20.639 43.6705 21.3783 43.5234 22.125 43.5234C22.8716 43.5234 23.6109 43.6705 24.3007 43.9562C24.9905 44.2419 25.6173 44.6607 26.1452 45.1887C26.6732 45.7166 27.0919 46.3434 27.3777 47.0332C27.6634 47.723 27.8105 48.4623 27.8105 49.2089V49.9519C27.8105 51.4564 27.2135 52.9774 26.1725 54.1259C25.078 55.3349 23.641 56.0019 22.1275 56.0019ZM22.1275 45.1244C21.0443 45.1256 20.0058 45.5564 19.2399 46.3224C18.474 47.0883 18.0431 48.1268 18.042 49.2099V49.9519C18.042 52.3219 19.951 54.4019 22.1275 54.4019C24.304 54.4019 26.213 52.3229 26.213 49.9519V49.2089C26.2118 48.1258 25.7809 47.0873 25.015 46.3214C24.2491 45.5554 23.2106 45.1246 22.1275 45.1234V45.1244Z" fill="#0E74BC"/>
<path d="M17.241 50.2051C17.0288 50.2109 16.823 50.1323 16.6689 49.9864C16.5147 49.8404 16.4248 49.6393 16.419 49.4271C16.4132 49.2149 16.4919 49.0091 16.6378 48.855C16.7837 48.7008 16.9848 48.6109 17.197 48.6051C18.8085 48.5151 19.927 47.8871 20.521 46.7386C20.5825 46.6158 20.6747 46.5109 20.7885 46.434C20.9024 46.3571 21.0341 46.3108 21.171 46.2996C21.3055 46.2883 21.4407 46.3121 21.5634 46.3685C21.686 46.4249 21.792 46.5121 21.871 46.6216C21.9075 46.6656 22.25 47.0626 22.997 47.4476C23.735 47.8286 25.028 48.2756 26.997 48.2406C27.2092 48.2369 27.4141 48.3176 27.5668 48.465C27.7194 48.6124 27.8073 48.8144 27.811 49.0266C27.8147 49.2388 27.734 49.4437 27.5866 49.5964C27.4392 49.7491 27.2372 49.8369 27.025 49.8406C24.079 49.8906 22.305 49.0026 21.387 48.3251C20.465 49.4591 19.0665 50.1036 17.287 50.2026L17.241 50.2051Z" fill="#0E74BC"/>
<rect x="47.5" width="25" height="38" rx="12.5" fill="#0D6AAB"/>
<path d="M56.5972 21.296V19.976L60.5212 14.36H62.4772V19.832H63.5332V21.296H62.4772V23H60.7972V21.296H56.5972ZM60.9052 16.16L58.4452 19.832H60.9052V16.16Z" fill="white"/>
</svg>
