<svg width="51" height="51" viewBox="0 0 51 51" fill="none" xmlns="http://www.w3.org/2000/svg">
<g clip-path="url(#clip0_1767_501)">
<path d="M26.2501 22.0972H24.751V23.5913H26.2501V22.0972Z" fill="white"/>
<path d="M26.2501 25.7031H24.751V27.1973H26.2501V25.7031Z" fill="white"/>
<path d="M36.4679 37.9443V39.4322H33.4639V40.9263H37.962V37.9443H36.4679Z" fill="white"/>
<path d="M47.1395 19.9639C46.6154 17.9095 45.8025 15.9488 44.7169 14.1207L47.4482 11.3893L39.6143 3.55519L36.8829 6.28658C35.1557 5.2613 33.3058 4.47767 31.3705 3.95173C30.4247 1.63831 28.1507 0.00341797 25.5009 0.00341797C22.8513 0.00341797 20.5775 1.63801 19.6315 3.95124C17.6957 4.47707 15.8449 5.2609 14.1173 6.28658L11.3858 3.55519L3.55187 11.3893L6.28316 14.1207C5.19762 15.9488 4.38461 17.9095 3.86056 19.9639H0V31.043H3.86046C4.38461 33.0974 5.19752 35.0581 6.28306 36.8863L3.55177 39.6177L11.3857 47.4517L14.1172 44.7203C15.6328 45.6198 17.2472 46.3341 18.9299 46.8514V50.9962H32.0717V46.8509C33.7539 46.3337 35.3677 45.6195 36.8828 44.7204L39.6142 47.4518L47.4481 39.6178L44.7168 36.8864C45.8024 35.0581 46.6154 33.0974 47.1394 31.0431H51V31.043V19.9639H47.1395ZM30.5461 10.175C30.5854 10.1234 30.6233 10.0707 30.6611 10.0179C30.6861 9.98298 30.7116 9.94842 30.7359 9.91286C30.7761 9.85409 30.8145 9.79392 30.8528 9.73376C30.8698 9.70696 30.8881 9.68107 30.9047 9.65407C37.7018 11.9657 42.2411 18.2862 42.2411 25.5035C42.2411 28.448 41.4934 31.2662 40.0623 33.7723V32.4451H36.6249V32.445V30.0037H36.6248H36.322V16.8068C36.322 13.7086 33.8012 11.1879 30.703 11.1879H29.5845C29.6084 11.1676 29.6309 11.146 29.6545 11.1255C29.704 11.0825 29.7533 11.0391 29.8015 10.9946C29.8342 10.9643 29.8662 10.9334 29.8983 10.9024C29.9438 10.8584 29.9888 10.8142 30.033 10.769C30.0649 10.7364 30.0962 10.7034 30.1274 10.6701C30.1701 10.6245 30.212 10.5782 30.2534 10.5313C30.2836 10.4971 30.3137 10.4626 30.3432 10.4275C30.3837 10.3795 30.4233 10.3307 30.4624 10.2815C30.4905 10.2462 30.5188 10.211 30.5461 10.175ZM20.6614 6.11575C20.6625 6.09264 20.6642 6.06963 20.6656 6.04662C20.6686 5.99532 20.6725 5.94432 20.6772 5.89352C20.6799 5.86453 20.6827 5.83565 20.686 5.80676C20.6909 5.76223 20.6967 5.71801 20.7029 5.67378C20.7072 5.6427 20.7112 5.61153 20.7162 5.58055C20.7232 5.53582 20.7317 5.4914 20.7401 5.44707C20.7516 5.38551 20.7645 5.32425 20.7785 5.26309C20.7854 5.23311 20.7919 5.20293 20.7993 5.17314C20.8095 5.13221 20.8207 5.09156 20.832 5.05082C20.8401 5.02184 20.8481 4.99295 20.8567 4.96416C20.8683 4.92532 20.8803 4.88657 20.8928 4.84802C21.5246 2.90564 23.3509 1.49766 25.5009 1.49766C27.6499 1.49766 29.4756 2.90454 30.108 4.84533C30.1211 4.88557 30.1336 4.92601 30.1457 4.96655C30.1537 4.99335 30.1612 5.02044 30.1687 5.04744C30.1804 5.08977 30.1921 5.13211 30.2027 5.17464C30.2092 5.20094 30.2149 5.22753 30.221 5.25403C30.2371 5.32375 30.2516 5.39378 30.2645 5.4641C30.2715 5.50215 30.2789 5.54011 30.285 5.57846C30.2903 5.61172 30.2946 5.64519 30.2992 5.67866C30.3049 5.7202 30.3104 5.76174 30.3151 5.80357C30.3186 5.83465 30.3217 5.86573 30.3245 5.89691C30.3289 5.94472 30.3324 5.99273 30.3354 6.04084C30.337 6.06664 30.3389 6.09244 30.3401 6.11824C30.3435 6.19275 30.3458 6.26755 30.3458 6.34296C30.3458 9.01458 28.1723 11.1881 25.5007 11.1881C22.8291 11.1881 20.6556 9.01458 20.6556 6.34296C20.6556 6.26676 20.6579 6.19105 20.6614 6.11575ZM27.5597 12.6819L25.5009 16.8782L23.4421 12.6819H27.5597ZM20.0969 9.65387C20.1156 9.68435 20.1362 9.71364 20.1556 9.74382C20.1914 9.7999 20.2272 9.85608 20.2646 9.91096C20.2906 9.94902 20.3179 9.98607 20.3447 10.0234C20.3807 10.0736 20.4167 10.1238 20.4541 10.1729C20.4829 10.2108 20.5127 10.2479 20.5422 10.2851C20.5798 10.3323 20.6177 10.3791 20.6566 10.4251C20.6876 10.4618 20.719 10.4979 20.7507 10.5338C20.7906 10.5789 20.8309 10.6234 20.872 10.6673C20.9046 10.7022 20.9374 10.7367 20.9708 10.7708C21.0133 10.8143 21.0567 10.857 21.1006 10.8993C21.1341 10.9317 21.1676 10.9641 21.2019 10.9958C21.2483 11.0387 21.2959 11.0804 21.3436 11.122C21.3684 11.1436 21.3922 11.1664 21.4173 11.1877H20.2987C17.6845 11.1877 15.4816 12.9822 14.8569 15.4041C14.7413 15.8526 14.6797 16.3226 14.6797 16.8067V31.4978H18.93V40.9059C12.8092 38.2922 8.75895 32.2176 8.75895 25.5034C8.75895 18.2733 13.2952 11.9644 20.0969 9.65387ZM18.9301 45.2837C17.3421 44.7566 15.8233 44.039 14.4036 43.1439L13.8989 42.8258L11.3858 45.3388L5.66478 39.6177L8.17773 37.1047L7.85958 36.6C6.60012 34.6022 5.69766 32.4257 5.1775 30.1308L5.04561 29.5489H1.49414V21.4581H5.04551L5.1774 20.8762C5.69776 18.5812 6.60002 16.4047 7.85948 14.4069L8.17763 13.9022L5.66478 11.3893L11.3858 5.6682L13.8989 8.18115L14.4036 7.863C15.9069 6.91531 17.5162 6.16824 19.2012 5.63473C19.2003 5.6427 19.2001 5.65067 19.1992 5.65864C19.1905 5.73883 19.1845 5.81971 19.1789 5.90069C19.1765 5.93446 19.173 5.96803 19.1711 6.00189C19.1657 6.1022 19.1632 6.20321 19.1627 6.30471C19.1626 6.31746 19.1616 6.33011 19.1616 6.34286C19.1616 6.35451 19.1625 6.36597 19.1626 6.37762C19.1632 6.48082 19.1657 6.58351 19.1712 6.68551C19.1735 6.72785 19.1778 6.76958 19.1809 6.81172C19.1862 6.88314 19.1913 6.95466 19.199 7.02538C19.2041 7.07279 19.2109 7.11961 19.217 7.16673C19.2255 7.23147 19.2341 7.29612 19.2444 7.36017C19.2523 7.40898 19.2615 7.45739 19.2705 7.5058C19.282 7.56735 19.2939 7.62871 19.3072 7.68968C19.3177 7.73848 19.3291 7.78689 19.3409 7.83521C19.3554 7.89507 19.3706 7.95444 19.3869 8.01361C19.4 8.06152 19.4134 8.10923 19.4276 8.15674C19.441 8.20147 19.4548 8.24599 19.4692 8.29032C16.0855 9.47916 13.0619 11.6926 10.8997 14.5773C8.52178 17.7498 7.26491 21.5281 7.26491 25.5036C7.26491 29.3269 8.43542 32.9871 10.6497 36.0885C12.7398 39.0157 15.5967 41.2324 18.9301 42.5188V45.2837ZM24.7538 49.502H20.4241V17.7737H18.93V30.0037H16.1739V16.8068C16.1739 14.5324 18.0243 12.682 20.2988 12.682H21.7777L24.7538 18.7478V20.2358H26.248V18.7478L29.2241 12.682H30.703C32.9775 12.682 34.8278 14.5324 34.8278 16.8068V30.0038H32.0718V17.7737H30.5777V30.0037H30.2748V32.445H26.9415V34.1989H23.1138V35.6931H24.7538V49.502ZM35.1306 31.4978V32.445H31.7689V31.4978H35.1306ZM30.5777 49.5021H26.248V35.6931H26.9415V43.0662H30.5776V47.277H30.5777V49.5021ZM36.5965 43.1439C35.1772 44.0387 33.659 44.7561 32.0717 45.2831V43.0662H36.7198L36.5965 43.1439ZM28.4357 41.5721V33.9392H38.5682L38.5681 41.5721H28.4357ZM49.5059 29.5492H45.9545L45.8225 30.1308C45.3022 32.4257 44.3999 34.6022 43.1404 36.6L42.8223 37.1047L45.3352 39.6177L39.6142 45.3387L37.3418 43.0662H40.0623V36.4793C42.4655 33.2976 43.7353 29.5076 43.7353 25.5035C43.7353 21.5464 42.489 17.7824 40.1312 14.6183C37.9681 11.7152 34.931 9.48523 31.5324 8.29122C31.5472 8.24559 31.5614 8.19978 31.5752 8.15366C31.5887 8.10843 31.6015 8.06291 31.614 8.01719C31.631 7.95563 31.6469 7.89368 31.6619 7.83142C31.6731 7.7853 31.684 7.73918 31.694 7.69266C31.7079 7.62911 31.7203 7.56506 31.7323 7.50082C31.7408 7.4549 31.7495 7.40898 31.757 7.36276C31.7679 7.29552 31.7769 7.22779 31.7858 7.15985C31.7914 7.11583 31.7978 7.072 31.8026 7.02767C31.8108 6.95237 31.8164 6.87627 31.8218 6.80026C31.8245 6.76261 31.8284 6.72536 31.8304 6.6876C31.8366 6.57345 31.84 6.4586 31.84 6.34296C31.84 6.22791 31.8366 6.11366 31.8305 6.0001C31.8289 5.97102 31.8258 5.94213 31.8238 5.91314C31.818 5.82758 31.8114 5.74221 31.8024 5.65764C31.8016 5.65037 31.8014 5.6429 31.8005 5.63563C33.485 6.16904 35.0937 6.91591 36.5965 7.86329L37.1011 8.18145L39.6141 5.6685L45.3351 11.3896L42.8222 13.9025L43.1403 14.4072C44.3998 16.405 45.3021 18.5815 45.8224 20.8765L45.9543 21.4584H49.5059V29.5492Z" fill="white"/>
</g>
<defs>
<clipPath id="clip0_1767_501">
<rect width="51" height="51" fill="white"/>
</clipPath>
</defs>
</svg>
