<svg width="212" height="212" viewBox="0 0 212 212" fill="none" xmlns="http://www.w3.org/2000/svg">
<g clip-path="url(#clip0_1811_4350)">
<path fill-rule="evenodd" clip-rule="evenodd" d="M27.3251 89.1052C23.2008 92.2922 22.441 98.2192 25.6281 102.343C28.815 106.468 34.7421 107.228 38.8664 104.041C42.9906 100.854 43.7504 94.9264 40.5634 90.8022C38.9699 88.7401 39.3498 85.7766 41.412 84.1831C43.4742 82.5895 46.4376 82.9695 48.0311 85.0316C54.4052 93.2802 52.8856 105.134 44.637 111.508C36.3884 117.882 24.5345 116.363 18.1604 108.114C11.7863 99.8655 13.3059 88.0115 21.5545 81.6375C23.6167 80.0439 26.5802 80.4239 28.1737 82.486C29.7672 84.5481 29.3873 87.5116 27.3251 89.1052ZM68.3974 57.3667C64.2732 60.5537 63.5133 66.4808 66.7003 70.605C69.8873 74.7293 75.8144 75.4891 79.9387 72.3021C84.0629 69.1151 84.8227 63.188 81.6357 59.0638C80.0422 57.0017 80.422 54.0382 82.4842 52.4446C84.5464 50.8511 87.5099 51.231 89.1034 53.2932C95.4775 61.5418 93.9579 73.3957 85.7093 79.7698C77.4607 86.1439 65.6067 84.6243 59.2327 76.3757C52.8586 68.1271 54.3782 56.2731 62.6268 49.8991C64.689 48.3055 67.6524 48.6854 69.2459 50.7476C70.8395 52.8097 70.4596 55.7732 68.3974 57.3667ZM109.47 25.6283C105.345 28.8153 104.586 34.7423 107.773 38.8666C110.96 42.9908 116.887 43.7507 121.011 40.5637C125.135 37.3767 125.895 31.4496 122.708 27.3254C121.114 25.2632 121.494 22.2998 123.557 20.7062C125.619 19.1127 128.582 19.4926 130.176 21.5548C136.55 29.8034 135.03 41.6573 126.782 48.0314C118.533 54.4055 106.679 52.8859 100.305 44.6372C93.9309 36.3887 95.4504 24.5347 103.699 18.1606C105.761 16.5671 108.725 16.947 110.318 19.0092C111.912 21.0713 111.532 24.0348 109.47 25.6283ZM59.0636 130.177C54.9393 133.364 54.1795 139.292 57.3665 143.416C60.5535 147.54 66.4805 148.3 70.6048 145.113C74.729 141.926 75.4888 135.999 72.3019 131.874C70.7083 129.812 71.0882 126.849 73.1504 125.255C75.2126 123.662 78.176 124.042 79.7695 126.104C86.1436 134.352 84.624 146.206 76.3754 152.58C68.1268 158.955 56.2729 157.435 49.8988 149.186C43.5247 140.938 45.0443 129.084 53.2929 122.71C55.3551 121.116 58.3185 121.496 59.9121 123.558C61.5056 125.62 61.1258 128.584 59.0636 130.177ZM100.136 98.439C96.0116 101.626 95.2518 107.553 98.4388 111.677C101.626 115.802 107.553 116.561 111.677 113.374C115.801 110.187 116.561 104.26 113.374 100.136C111.781 98.0739 112.16 95.1105 114.223 93.5169C116.285 91.9234 119.248 92.3033 120.842 94.3655C127.216 102.614 125.696 114.468 117.448 120.842C109.199 127.216 97.3452 125.697 90.9711 117.448C84.597 109.199 86.1166 97.3454 94.3652 90.9713C96.4274 89.3778 99.3908 89.7577 100.984 91.8199C102.578 93.8821 102.198 96.8455 100.136 98.439ZM141.208 66.7006C137.084 69.8876 136.324 75.8147 139.511 79.9389C142.698 84.0631 148.625 84.8229 152.749 81.636C156.874 78.449 157.633 72.5219 154.446 68.3977C152.853 66.3355 153.233 63.3721 155.295 61.7785C157.357 60.1849 160.321 60.5648 161.914 62.627C168.288 70.8757 166.769 82.7296 158.52 89.1037C150.271 95.4777 138.417 93.9581 132.043 85.7095C125.669 77.4609 127.189 65.607 135.437 59.2329C137.5 57.6394 140.463 58.0192 142.057 60.0814C143.65 62.1436 143.27 65.107 141.208 66.7006ZM130.007 140.954C125.883 144.141 125.123 150.068 128.31 154.192C131.497 158.316 137.424 159.076 141.549 155.889C145.673 152.702 146.433 146.775 143.246 142.651C141.652 140.589 142.032 137.625 144.094 136.032C146.156 134.438 149.12 134.818 150.713 136.88C157.087 145.129 155.568 156.983 147.319 163.357C139.071 169.731 127.217 168.211 120.843 159.963C114.468 151.714 115.988 139.86 124.237 133.486C126.299 131.893 129.262 132.273 130.856 134.335C132.449 136.397 132.07 139.36 130.007 140.954Z" fill="white" fill-opacity="0.1"/>
</g>
<defs>
<clipPath id="clip0_1811_4350">
<rect width="151" height="151" fill="white" transform="translate(0 92.3301) rotate(-37.6949)"/>
</clipPath>
</defs>
</svg>
