<svg width="35" height="35" viewBox="0 0 35 35" fill="none" xmlns="http://www.w3.org/2000/svg">
<g clip-path="url(#clip0_1710_438)">
<path fill-rule="evenodd" clip-rule="evenodd" d="M30.3491 0.389985H35V8.40567H30.3488V0.389985H30.3491ZM25.8941 8.6843C25.7285 8.76053 25.5486 8.80029 25.3664 8.80089C25.1841 8.80149 25.0039 8.76292 24.8379 8.68779L17.9336 5.72919C17.8642 5.57545 17.8351 5.40661 17.8489 5.23851C17.8628 5.07042 17.9191 4.9086 18.0126 4.76826C18.1062 4.62792 18.2339 4.51366 18.3837 4.43622C18.5335 4.35878 18.7006 4.32071 18.8692 4.32557L22.3335 5.81177C22.4754 5.87073 22.6349 5.87137 22.7773 5.81355C22.9197 5.75573 23.0336 5.64411 23.0942 5.50289C23.1549 5.36167 23.1574 5.20223 23.1013 5.05915C23.0452 4.91606 22.9349 4.80087 22.7944 4.73853L19.2373 3.21439C19.1845 3.19226 19.129 3.17723 19.0723 3.16968C18.6162 3.11994 18.1562 3.21686 17.759 3.44639C17.3619 3.67591 17.0482 4.02607 16.8636 4.44602L9.55664 6.83347C9.44755 6.82885 9.3421 6.79285 9.25296 6.72979C9.16382 6.66673 9.09477 6.57928 9.05409 6.47795C9.01342 6.37662 9.00285 6.2657 9.02365 6.15851C9.04445 6.05131 9.09574 5.9524 9.17137 5.87364L20.3967 0.152641C20.6 0.0435108 20.8289 -0.0089887 21.0595 0.000631702C21.29 0.0102521 21.5138 0.081639 21.7073 0.207328L25.5191 2.57762C25.6807 2.68088 25.8622 2.74895 26.0518 2.77739C26.2414 2.80583 26.4349 2.79402 26.6197 2.74271L29.1792 2.06506V7.24944L25.8938 8.68396L25.8941 8.6843ZM32.4889 7.23946C32.4889 7.08435 32.4273 6.93561 32.3176 6.82593C32.2079 6.71626 32.0592 6.65464 31.9041 6.65464C31.749 6.65464 31.6002 6.71626 31.4905 6.82593C31.3809 6.93561 31.3193 7.08435 31.3193 7.23946V7.28731C31.3193 7.44241 31.3809 7.59116 31.4905 7.70083C31.6002 7.81051 31.749 7.87212 31.9041 7.87212C32.0592 7.87212 32.2079 7.81051 32.3176 7.70083C32.4273 7.59116 32.4889 7.44241 32.4889 7.28731V7.23946ZM9.10595 26.3153C9.27146 26.2391 9.45141 26.1994 9.63362 26.1988C9.81582 26.1982 9.99603 26.2367 10.162 26.3119L17.0631 29.2704C17.1334 29.4241 17.1633 29.5932 17.1499 29.7617C17.1365 29.9301 17.0802 30.0924 16.9865 30.233C16.8927 30.3737 16.7646 30.488 16.6142 30.5652C16.4639 30.6423 16.2963 30.6798 16.1273 30.674L12.6631 29.1879C12.5211 29.1285 12.3614 29.1276 12.2187 29.1854C12.0761 29.2431 11.962 29.3548 11.9012 29.4962C11.8405 29.6377 11.838 29.7973 11.8943 29.9406C11.9507 30.0838 12.0613 30.199 12.2021 30.2611L15.7592 31.7851C15.8133 31.8073 15.8699 31.8223 15.9278 31.8298C16.3351 31.8724 16.7462 31.7986 17.1133 31.6172C17.4805 31.4357 17.7887 31.1539 18.0022 30.8044C18.0537 30.7233 18.0986 30.6382 18.1364 30.5499L25.4399 28.1658C25.549 28.1704 25.6545 28.2064 25.7436 28.2695C25.8328 28.3325 25.9019 28.42 25.9425 28.5213C25.9832 28.6227 25.9938 28.7336 25.973 28.8408C25.9522 28.948 25.9009 29.0469 25.8253 29.1257L14.5999 34.8467C14.3965 34.9557 14.1676 35.0082 13.937 34.9985C13.7065 34.9888 13.4827 34.9174 13.2892 34.7916L9.4809 32.4213C9.31866 32.318 9.13653 32.2499 8.9463 32.2215C8.75607 32.1931 8.56198 32.2049 8.37662 32.2563L5.81738 32.9342V27.7464L9.10622 26.3153H9.10595ZM0 26.5939H4.65117V34.6096H0V26.5939ZM3.67773 27.712C3.67773 27.5573 3.6163 27.409 3.50695 27.2997C3.39759 27.1903 3.24928 27.1289 3.09463 27.1289C2.93998 27.1289 2.79166 27.1903 2.68231 27.2997C2.57296 27.409 2.51152 27.5573 2.51152 27.712V27.7598C2.51152 27.9145 2.57296 28.0628 2.68231 28.1722C2.79166 28.2815 2.93998 28.343 3.09463 28.343C3.24928 28.343 3.39759 28.2815 3.50695 28.1722C3.6163 28.0628 3.67773 27.9145 3.67773 27.7598V27.712ZM18.2362 20.7421V25.1181H16.9805V20.8144C16.9798 20.6892 16.939 20.5675 16.8641 20.4672C16.7892 20.3669 16.684 20.2933 16.5642 20.2571C15.9661 20.0769 15.4329 19.7274 15.0292 19.2508C14.6255 18.7741 14.3685 18.1907 14.2891 17.5711C14.2098 16.9516 14.3117 16.3223 14.5823 15.7593C14.8529 15.1963 15.2808 14.7238 15.8143 14.3987V16.7243C15.8128 16.9609 15.8581 17.1953 15.9476 17.4143C16.0371 17.6332 16.1691 17.8323 16.3358 18.0001C16.5025 18.1679 16.7008 18.301 16.9192 18.3919C17.1376 18.4827 17.3718 18.5295 17.6083 18.5295C17.8449 18.5295 18.0791 18.4827 18.2974 18.3919C18.5158 18.301 18.7141 18.1679 18.8808 18.0001C19.0476 17.8323 19.1795 17.6332 19.269 17.4143C19.3585 17.1953 19.4038 16.9609 19.4024 16.7243V14.543C19.8759 14.8877 20.2469 15.3546 20.476 15.8936C20.705 16.4327 20.7835 17.0239 20.703 17.604C20.6225 18.1842 20.386 18.7316 20.0188 19.1879C19.6516 19.6443 19.1674 19.9924 18.618 20.1952C18.5064 20.237 18.4102 20.3116 18.342 20.4093C18.2738 20.5069 18.2369 20.623 18.2362 20.7421L18.2362 20.7421ZM23.2692 18.6264C23.2948 18.5167 23.3516 18.4167 23.4328 18.3386C23.514 18.2604 23.6161 18.2075 23.7267 18.1861L24.8964 17.9625V16.5899L23.7267 16.3663C23.6161 16.3449 23.514 16.2919 23.4328 16.2138C23.3516 16.1356 23.2948 16.0356 23.2692 15.9259C23.1231 15.2977 22.8744 14.698 22.533 14.1508C22.4736 14.0553 22.4433 13.9447 22.4457 13.8323C22.4481 13.7199 22.4832 13.6106 22.5467 13.5178L23.2141 12.5305L22.2441 11.5603L21.2602 12.2277C21.1668 12.2912 21.057 12.3263 20.9441 12.3287C20.8311 12.3311 20.7199 12.3008 20.6238 12.2414C20.0759 11.9014 19.4764 11.6528 18.8487 11.5052C18.7389 11.4796 18.6389 11.4228 18.5608 11.3416C18.4827 11.2604 18.4297 11.1583 18.4084 11.0476L18.1882 9.87799H16.8121L16.5885 11.0476C16.5671 11.1583 16.5142 11.2604 16.436 11.3416C16.3579 11.4228 16.2579 11.4796 16.1481 11.5052C15.5217 11.6535 14.9234 11.9021 14.3765 12.2414C14.2804 12.3008 14.1692 12.3311 14.0562 12.3287C13.9433 12.3263 13.8335 12.2912 13.74 12.2277L12.7559 11.5603L11.7823 12.5305L12.4532 13.5178C12.5162 13.6109 12.5507 13.7203 12.5525 13.8328C12.5543 13.9452 12.5234 14.0557 12.4635 14.1508C12.1235 14.6987 11.8749 15.2982 11.7273 15.9259C11.7017 16.0356 11.6449 16.1356 11.5637 16.2138C11.4825 16.2919 11.3804 16.3449 11.2697 16.3663L10.1035 16.5899V17.9625L11.2697 18.1861C11.3804 18.2075 11.4825 18.2604 11.5637 18.3386C11.6448 18.4167 11.7017 18.5167 11.7273 18.6264C11.8749 19.253 12.1235 19.8515 12.4635 20.3982C12.5234 20.4939 12.5544 20.605 12.5525 20.7179C12.5507 20.8308 12.5162 20.9408 12.4532 21.0346L11.7824 22.0183L12.7559 22.9921L13.7402 22.3247C13.8337 22.2611 13.9435 22.226 14.0564 22.2236C14.1694 22.2212 14.2806 22.2515 14.3767 22.311C14.8255 22.5888 15.309 22.8063 15.8147 22.9577V21.2273C14.9754 20.8796 14.2642 20.2807 13.7786 19.5129C13.293 18.7451 13.0568 17.8459 13.1024 16.9385C13.148 16.0312 13.4731 15.1602 14.0332 14.4449C14.5933 13.7296 15.361 13.2051 16.2309 12.9432C16.3179 12.9164 16.41 12.9106 16.4996 12.9261C16.5893 12.9417 16.674 12.9782 16.7469 13.0327C16.8195 13.0872 16.8784 13.1579 16.9189 13.2392C16.9595 13.3204 16.9805 13.41 16.9805 13.5008V16.7243C16.9796 16.8073 16.9952 16.8896 17.0264 16.9665C17.0575 17.0435 17.1036 17.1135 17.162 17.1725C17.2204 17.2315 17.2899 17.2783 17.3665 17.3103C17.4431 17.3422 17.5253 17.3587 17.6083 17.3587C17.6913 17.3587 17.7735 17.3422 17.8501 17.3103C17.9267 17.2783 17.9962 17.2315 18.0546 17.1725C18.113 17.1135 18.1591 17.0435 18.1903 16.9665C18.2214 16.8896 18.237 16.8073 18.2362 16.7243V13.5729C18.2363 13.4788 18.2592 13.3861 18.3029 13.3028C18.3466 13.2194 18.4099 13.1479 18.4872 13.0944C18.5648 13.0412 18.654 13.0072 18.7473 12.9952C18.8406 12.9832 18.9354 12.9936 19.0239 13.0255C19.835 13.3257 20.5398 13.858 21.0504 14.5561C21.561 15.2542 21.8548 16.0872 21.8952 16.9511C21.9355 17.815 21.7207 18.6717 21.2774 19.4144C20.8341 20.157 20.182 20.7527 19.4024 21.1272V22.8851C19.8303 22.7417 20.2402 22.549 20.6236 22.3109C20.7197 22.2515 20.8309 22.2211 20.9438 22.2236C21.0568 22.226 21.1666 22.2611 21.26 22.3246L22.2439 22.992L23.2142 22.0183L22.5468 21.0344C22.4833 20.941 22.4482 20.8312 22.4457 20.7183C22.4433 20.6053 22.4737 20.4941 22.5331 20.398C22.8751 19.8524 23.124 19.2537 23.2695 18.6264H23.2692Z" fill="white"/>
</g>
<defs>
<clipPath id="clip0_1710_438">
<rect width="35" height="35" fill="white"/>
</clipPath>
</defs>
</svg>
