<svg width="36" height="36" viewBox="0 0 36 36" fill="none" xmlns="http://www.w3.org/2000/svg">
<path d="M14.49 29.2951C14.466 29.2525 14.4521 29.205 14.4494 29.1561C14.4466 29.1073 14.4551 29.0585 14.4741 29.0135C14.4931 28.9684 14.5221 28.9283 14.559 28.8962C14.5959 28.8641 14.6396 28.8409 14.6869 28.8283L15.4575 28.6876C15.7206 28.6409 15.9585 28.502 16.1285 28.2959C16.2986 28.0898 16.3897 27.8298 16.3856 27.5626V26.4376C16.3897 26.1704 16.2986 25.9105 16.1285 25.7044C15.9585 25.4982 15.7206 25.3594 15.4575 25.3126L14.6812 25.1776C14.6332 25.1659 14.5889 25.1423 14.5525 25.1088C14.5161 25.0754 14.4888 25.0332 14.4731 24.9864C14.3494 24.7445 14.7319 24.4239 14.94 24.0639C15.0918 23.8476 15.1626 23.5847 15.1399 23.3214C15.1173 23.0581 15.0027 22.8111 14.8162 22.6239L14.0119 21.8195C13.8249 21.6345 13.5791 21.5207 13.3171 21.4981C13.055 21.4755 12.7933 21.5455 12.5775 21.6958L11.9306 22.1458C11.8884 22.1698 11.8412 22.1839 11.7927 22.187C11.7442 22.1901 11.6956 22.1821 11.6506 22.1637C11.6057 22.1453 11.5655 22.1169 11.5331 22.0806C11.5007 22.0444 11.477 22.0013 11.4637 21.9545L11.3287 21.1783C11.282 20.9151 11.1431 20.6773 10.937 20.5072C10.7309 20.3371 10.4709 20.246 10.2037 20.2501H9.07873C8.81154 20.246 8.5516 20.3371 8.34547 20.5072C8.13933 20.6773 8.00047 20.9151 7.95373 21.1783L7.81873 21.9545C7.80547 22.0013 7.78175 22.0444 7.74937 22.0806C7.71699 22.1169 7.67679 22.1453 7.63182 22.1637C7.58685 22.1821 7.53827 22.1901 7.48977 22.187C7.44127 22.1839 7.39411 22.1698 7.35186 22.1458L6.74998 21.7239C6.53351 21.5743 6.27145 21.5053 6.00938 21.529C5.74731 21.5526 5.50182 21.6674 5.31561 21.8533L4.49998 22.652C4.31265 22.8386 4.19701 23.0851 4.17335 23.3485C4.14969 23.6118 4.21953 23.875 4.37061 24.092L4.81498 24.7501C4.83913 24.7931 4.85181 24.8415 4.85181 24.8908C4.85181 24.94 4.83913 24.9884 4.81498 25.0314C4.79894 25.0775 4.77141 25.1187 4.735 25.1512C4.69858 25.1837 4.65447 25.2063 4.60686 25.217L3.83061 25.352C3.56853 25.3999 3.33197 25.5393 3.16303 25.7453C2.9941 25.9513 2.90376 26.2106 2.90811 26.477V27.602C2.90376 27.8684 2.9941 28.1277 3.16303 28.3337C3.33197 28.5397 3.56853 28.6791 3.83061 28.727L4.60686 28.8676C4.65348 28.8812 4.69649 28.9049 4.73276 28.9372C4.76903 28.9695 4.79764 29.0094 4.8165 29.0542C4.83536 29.0989 4.84401 29.1473 4.8418 29.1958C4.83959 29.2443 4.82658 29.2917 4.80373 29.3345L4.34811 29.9758C4.21017 30.1916 4.15004 30.4481 4.17766 30.7028C4.20527 30.9575 4.31898 31.1951 4.49998 31.3764L5.30436 32.1808C5.49127 32.3658 5.73711 32.4795 5.99916 32.5021C6.2612 32.5247 6.52289 32.4548 6.73873 32.3045L7.38561 31.8545C7.42957 31.8304 7.4789 31.8177 7.52905 31.8177C7.57919 31.8177 7.62852 31.8304 7.67248 31.8545C7.92561 31.9276 7.89186 32.4564 7.98748 32.8389C8.03422 33.102 8.17308 33.3399 8.37922 33.5099C8.58535 33.68 8.84529 33.7711 9.11248 33.767H10.2375C10.5047 33.7711 10.7646 33.68 10.9708 33.5099C11.1769 33.3399 11.3158 33.102 11.3625 32.8389L11.4637 32.0626C11.476 32.0152 11.4992 31.9713 11.5314 31.9344C11.5636 31.8975 11.604 31.8687 11.6493 31.8501C11.6946 31.8315 11.7436 31.8238 11.7925 31.8275C11.8413 31.8312 11.8886 31.8462 11.9306 31.8714L12.5775 32.3214C12.7933 32.4717 13.055 32.5416 13.3171 32.519C13.5791 32.4964 13.8249 32.3827 14.0119 32.1976L14.8162 31.3933C15.0027 31.206 15.1173 30.9591 15.1399 30.6958C15.1626 30.4325 15.0918 30.1696 14.94 29.9533L14.49 29.2951ZM12.7406 27.0451C12.6112 31.1233 6.69373 31.1233 6.55311 27.0451C6.69373 22.9333 12.6112 22.9389 12.7406 27.0001V27.0451Z" fill="white"/>
<path d="M9.65259 25.0537C9.13044 25.0537 8.62968 25.2611 8.26047 25.6303C7.89126 25.9996 7.68384 26.5003 7.68384 27.0225C7.68384 27.5446 7.89126 28.0454 8.26047 28.4146C8.62968 28.7838 9.13044 28.9912 9.65259 28.9912C10.1747 28.9912 10.6755 28.7838 11.0447 28.4146C11.4139 28.0454 11.6213 27.5446 11.6213 27.0225C11.6213 26.5003 11.4139 25.9996 11.0447 25.6303C10.6755 25.2611 10.1747 25.0537 9.65259 25.0537Z" fill="white"/>
<path d="M15.7499 11.8858C15.898 12.0052 16.0726 12.0875 16.259 12.1258C16.4454 12.164 16.6382 12.1571 16.8214 12.1056C17.0046 12.0541 17.1727 11.9595 17.3119 11.8297C17.4511 11.6999 17.5572 11.5388 17.6213 11.3596C17.6854 11.1805 17.7058 10.9886 17.6806 10.8C17.6555 10.6114 17.5856 10.4315 17.4767 10.2754C17.3679 10.1194 17.2233 9.9916 17.055 9.90282C16.8867 9.81405 16.6996 9.76684 16.5093 9.76514C16.2647 9.76928 16.0272 9.84784 15.8284 9.99036C15.6295 10.1329 15.4789 10.3326 15.3964 10.5629C15.3139 10.7932 15.3036 11.0432 15.3667 11.2795C15.4299 11.5158 15.5636 11.7273 15.7499 11.8858Z" fill="white"/>
<path d="M14.7206 15.7839H18.2531C18.2956 15.7839 18.3378 15.7755 18.3771 15.759C18.4163 15.7425 18.4519 15.7184 18.4818 15.688C18.5116 15.6577 18.5351 15.6217 18.5509 15.5821C18.5667 15.5426 18.5744 15.5003 18.5737 15.4577V14.3327C18.574 14.0364 18.4828 13.7472 18.3127 13.5046C18.1426 13.262 17.9017 13.0778 17.6231 12.9771C17.2784 13.1666 16.8914 13.266 16.4981 13.266C16.1047 13.266 15.7177 13.1666 15.3731 12.9771C15.0944 13.0778 14.8536 13.262 14.6834 13.5046C14.5133 13.7472 14.4222 14.0364 14.4224 14.3327V15.4577C14.4208 15.5399 14.4508 15.6196 14.5063 15.6804C14.5618 15.7411 14.6385 15.7782 14.7206 15.7839Z" fill="white"/>
<path d="M31.1063 2.25H14.6251C14.1009 2.25149 13.5988 2.46075 13.2287 2.83191C12.8585 3.20307 12.6507 3.70584 12.6507 4.23V5.74875H11.0701C10.5459 5.74875 10.0432 5.95658 9.672 6.32669C9.30084 6.69679 9.09158 7.19897 9.09009 7.72312V19.1531H10.2151C10.6677 19.154 11.1095 19.2914 11.4828 19.5473C11.8561 19.8032 12.1435 20.1657 12.3076 20.5875C12.7218 20.4059 13.181 20.3533 13.6255 20.4366C14.07 20.5198 14.4791 20.7351 14.7995 21.0544L15.6038 21.8587C15.924 22.1784 16.1404 22.5872 16.2247 23.0318C16.3089 23.4763 16.2573 23.9359 16.0763 24.3506C16.4973 24.5143 16.8592 24.8009 17.115 25.1731C17.3708 25.5453 17.5087 25.9859 17.5107 26.4375V27.5625C17.5103 28.0144 17.3737 28.4558 17.1189 28.829C16.864 29.2022 16.5027 29.49 16.082 29.655C16.2766 30.1133 16.3177 30.6224 16.1991 31.106C16.0805 31.5896 15.8085 32.0219 15.4238 32.3381H27.5626C28.0814 32.3323 28.5774 32.1236 28.9443 31.7567C29.3112 31.3898 29.5199 30.8938 29.5257 30.375V28.8562H31.1063C31.6305 28.8548 32.1327 28.6455 32.5028 28.2743C32.8729 27.9032 33.0807 27.4004 33.0807 26.8762V4.23C33.0807 3.70584 32.8729 3.20307 32.5028 2.83191C32.1327 2.46075 31.6305 2.25149 31.1063 2.25ZM26.567 13.95H22.1738C22.0247 13.95 21.8816 13.8907 21.7761 13.7852C21.6706 13.6798 21.6113 13.5367 21.6113 13.3875C21.6113 13.2383 21.6706 13.0952 21.7761 12.9898C21.8816 12.8843 22.0247 12.825 22.1738 12.825H26.567C26.7161 12.825 26.8592 12.8843 26.9647 12.9898C27.0702 13.0952 27.1295 13.2383 27.1295 13.3875C27.1295 13.5367 27.0702 13.6798 26.9647 13.7852C26.8592 13.8907 26.7161 13.95 26.567 13.95ZM27.1295 16.2C27.1295 16.3492 27.0702 16.4923 26.9647 16.5977C26.8592 16.7032 26.7161 16.7625 26.567 16.7625H21.5382C21.389 16.7625 21.246 16.7032 21.1405 16.5977C21.035 16.4923 20.9757 16.3492 20.9757 16.2C20.9757 16.0508 21.035 15.9077 21.1405 15.8023C21.246 15.6968 21.389 15.6375 21.5382 15.6375H26.567C26.7161 15.6375 26.8592 15.6968 26.9647 15.8023C27.0702 15.9077 27.1295 16.0508 27.1295 16.2ZM26.567 11.1375H20.9813C20.8322 11.1375 20.6891 11.0782 20.5836 10.9727C20.4781 10.8673 20.4188 10.7242 20.4188 10.575C20.4188 10.4258 20.4781 10.2827 20.5836 10.1773C20.6891 10.0718 20.8322 10.0125 20.9813 10.0125H26.567C26.7161 10.0125 26.8592 10.0718 26.9647 10.1773C27.0702 10.2827 27.1295 10.4258 27.1295 10.575C27.1295 10.7242 27.0702 10.8673 26.9647 10.9727C26.8592 11.0782 26.7161 11.1375 26.567 11.1375ZM14.192 10.9631C14.1927 10.607 14.2756 10.2559 14.4341 9.93697C14.5925 9.61807 14.8224 9.33997 15.1057 9.12426C15.389 8.90856 15.7183 8.76106 16.0679 8.69321C16.4175 8.62535 16.778 8.63898 17.1215 8.73301C17.4649 8.82705 17.7821 8.99898 18.0484 9.23545C18.3146 9.47192 18.5228 9.76657 18.6568 10.0965C18.7907 10.4265 18.8468 10.7829 18.8207 11.138C18.7946 11.4932 18.6871 11.8375 18.5063 12.1444C18.8712 12.3818 19.1706 12.7071 19.377 13.0905C19.5834 13.4738 19.6902 13.9028 19.6876 14.3381V15.4631C19.6876 15.847 19.5355 16.2153 19.2645 16.4873C18.9936 16.7593 18.6259 16.9129 18.242 16.9144H14.7207C14.3368 16.9129 13.9691 16.7593 13.6982 16.4873C13.4272 16.2153 13.2751 15.847 13.2751 15.4631V14.3381C13.2745 13.8995 13.3863 13.468 13.6 13.0849C13.8138 12.7018 14.1221 12.3799 14.4957 12.15C14.2768 11.793 14.1618 11.3819 14.1638 10.9631H14.192ZM13.8376 19.575C13.6884 19.575 13.5453 19.5157 13.4398 19.4102C13.3344 19.3048 13.2751 19.1617 13.2751 19.0125C13.2751 18.8633 13.3344 18.7202 13.4398 18.6148C13.5453 18.5093 13.6884 18.45 13.8376 18.45H26.567C26.7161 18.45 26.8592 18.5093 26.9647 18.6148C27.0702 18.7202 27.1295 18.8633 27.1295 19.0125C27.1295 19.1617 27.0702 19.3048 26.9647 19.4102C26.8592 19.5157 26.7161 19.575 26.567 19.575H13.8376ZM16.9651 21.825C16.9651 21.6758 17.0244 21.5327 17.1298 21.4273C17.2353 21.3218 17.3784 21.2625 17.5276 21.2625H26.567C26.7161 21.2625 26.8592 21.3218 26.9647 21.4273C27.0702 21.5327 27.1295 21.6758 27.1295 21.825C27.1295 21.9742 27.0702 22.1173 26.9647 22.2227C26.8592 22.3282 26.7161 22.3875 26.567 22.3875H17.5276C17.3794 22.3875 17.2371 22.329 17.1318 22.2247C17.0265 22.1205 16.9666 21.9788 16.9651 21.8306V21.825ZM26.567 25.2H18.692C18.5428 25.2 18.3997 25.1407 18.2942 25.0352C18.1887 24.9298 18.1295 24.7867 18.1295 24.6375C18.1295 24.4883 18.1887 24.3452 18.2942 24.2398C18.3997 24.1343 18.5428 24.075 18.692 24.075H26.567C26.7169 24.075 26.8607 24.1346 26.9667 24.2406C27.0727 24.3466 27.1323 24.4904 27.1323 24.6403C27.1323 24.7902 27.0727 24.934 26.9667 25.0401C26.8607 25.1461 26.7169 25.2056 26.567 25.2056V25.2ZM27.1295 27.45C27.1295 27.5992 27.0702 27.7423 26.9647 27.8477C26.8592 27.9532 26.7161 28.0125 26.567 28.0125H21.5382C21.389 28.0125 21.246 27.9532 21.1405 27.8477C21.035 27.7423 20.9757 27.5992 20.9757 27.45C20.9757 27.3008 21.035 27.1577 21.1405 27.0523C21.246 26.9468 21.389 26.8875 21.5382 26.8875H26.567C26.6413 26.8875 26.7149 26.9022 26.7835 26.9308C26.8521 26.9595 26.9144 27.0014 26.9667 27.0542C27.019 27.1071 27.0603 27.1697 27.0883 27.2386C27.1162 27.3075 27.1302 27.3813 27.1295 27.4556V27.45ZM31.9557 26.8875C31.9557 27.1133 31.8664 27.3299 31.7073 27.4901C31.5482 27.6503 31.3321 27.741 31.1063 27.7425H29.5257V7.72312C29.5243 7.20188 29.3173 6.70224 28.9498 6.33261C28.5823 5.96299 28.0838 5.75319 27.5626 5.74875H13.7757V4.23C13.7757 4.00421 13.865 3.78759 14.0241 3.6274C14.1833 3.46722 14.3993 3.37649 14.6251 3.375H31.1063C31.3321 3.37649 31.5482 3.46722 31.7073 3.6274C31.8664 3.78759 31.9557 4.00421 31.9557 4.23V26.8875Z" fill="white"/>
</svg>
