<svg width="38" height="38" viewBox="0 0 38 38" fill="none" xmlns="http://www.w3.org/2000/svg">
<path fill-rule="evenodd" clip-rule="evenodd" d="M15.0206 6.97422C15.6225 6.97422 16.1116 6.48512 16.1116 5.8832C16.1116 5.28129 15.6225 4.79219 15.0206 4.79219C14.4194 4.79219 13.9296 5.28129 13.9296 5.8832C13.9296 6.48512 14.4194 6.97422 15.0206 6.97422ZM30.2592 24.59C29.3047 25.0873 28.1224 25.4584 26.661 25.7182V28.802C26.661 29.248 26.7189 29.6221 26.8547 30.0525C27.4559 31.9533 28.3881 33.0562 30.2592 34.0522C32.1295 33.0562 33.0624 31.9533 33.6628 30.0525C33.7994 29.6221 33.8573 29.248 33.8573 28.802V25.7182C32.3959 25.4577 31.2136 25.0873 30.2592 24.59ZM32.4427 27.3458C32.6163 27.1721 32.8984 27.1721 33.0721 27.3458C33.2465 27.5195 33.2465 27.8015 33.0721 27.9752L29.8621 31.1859C29.7753 31.2727 29.661 31.3165 29.5474 31.3165C29.4331 31.3165 29.3195 31.2727 29.2327 31.1859L27.6029 29.556C27.4292 29.3823 27.4292 29.1003 27.6029 28.9266C27.7765 28.753 28.0586 28.753 28.2322 28.9266L29.5474 30.2411L32.4427 27.3458ZM30.2592 22.5505C31.3042 23.3818 33.0186 23.9191 35.5836 24.2234V28.8012C35.5836 29.4343 35.5012 29.9627 35.309 30.5713C34.4919 33.1586 33.1144 34.6393 30.2592 35.9782C27.404 34.6393 26.0265 33.1586 25.2086 30.5713C25.0163 29.9635 24.934 29.4336 24.934 28.8012V24.2234C27.4997 23.9191 29.2134 23.381 30.2592 22.5505ZM30.4781 23.6957C31.4526 24.2442 32.7269 24.6383 34.3731 24.9018C34.5898 24.9366 34.7487 25.1229 34.7487 25.3419V28.802C34.7487 29.3371 34.6759 29.8054 34.5126 30.3212C33.7111 32.8565 32.3135 34.0054 30.4618 34.951C30.3987 34.9836 30.3289 35 30.2599 35C30.1901 35 30.1204 34.9836 30.0573 34.951C28.2055 34.0054 26.808 32.8565 26.0064 30.3212C25.8431 29.8054 25.7712 29.3371 25.7712 28.802V25.3419C25.7712 25.1229 25.93 24.9366 26.1467 24.9018C27.7936 24.639 29.0672 24.2442 30.0417 23.6957C30.176 23.6193 30.3415 23.6185 30.4781 23.6957ZM8.4908 14.5764L8.21471 14.0243L7.93861 14.5764H8.4908ZM16.8983 14.6692C16.8983 14.3427 16.761 14.0235 16.5228 13.7934C16.2964 13.5752 16.0062 13.4617 15.7034 13.4736L15.2276 13.4921V15.8812L15.6685 15.8641C16.358 15.8382 16.8983 15.3127 16.8983 14.6692ZM23.6641 7.1234C23.6641 6.56156 23.5208 6.03312 23.2692 5.57148H23.4325C25.7645 5.57148 27.6608 7.46851 27.6608 9.79973V22.8036C26.7917 23.0545 25.7222 23.2459 24.4419 23.381C24.2155 23.4048 24.0433 23.5963 24.0433 23.8241V28.8005C24.0433 29.5196 24.1406 30.149 24.3595 30.84C24.7024 31.9258 25.147 32.815 25.6828 33.5638C25.0089 33.9928 24.24 34.2177 23.4325 34.2177H6.60861C4.27666 34.2177 2.38037 32.3214 2.38037 29.9895V9.80047C2.38037 7.46852 4.2774 5.57223 6.60861 5.57223H6.77189C6.52029 6.03312 6.37705 6.5623 6.37705 7.12414C6.37705 8.91652 7.83545 10.3749 9.62783 10.3749H20.414C22.2064 10.3742 23.6641 8.91578 23.6641 7.1234ZM22.2717 13.4736H23.4845C23.7309 13.4736 23.9298 13.2739 23.9298 13.0282C23.9298 12.7818 23.7301 12.5829 23.4845 12.5829H20.1676C19.922 12.5829 19.7223 12.7818 19.7223 13.0282C19.7223 13.2739 19.922 13.4736 20.1676 13.4736H21.3804V16.3451C21.3804 16.5915 21.58 16.7904 21.8257 16.7904C22.0721 16.7904 22.271 16.5915 22.271 16.3451V13.4736H22.2717ZM5.09158 18.68C4.84518 18.68 4.64627 18.8789 4.64627 19.1253C4.64627 19.371 4.84592 19.5706 5.09158 19.5706H24.9503C25.196 19.5706 25.3956 19.371 25.3956 19.1253C25.3956 18.8789 25.196 18.68 24.9503 18.68H5.09158ZM5.09158 21.1507C4.84518 21.1507 4.64627 21.3504 4.64627 21.5961C4.64627 21.8417 4.84592 22.0414 5.09158 22.0414H24.9503C25.196 22.0414 25.3956 21.8417 25.3956 21.5961C25.3956 21.3496 25.196 21.1507 24.9503 21.1507H5.09158ZM5.09158 23.6222C4.84518 23.6222 4.64627 23.8219 4.64627 24.0675C4.64627 24.3139 4.84592 24.5129 5.09158 24.5129H22.5953C22.8417 24.5129 23.0406 24.3132 23.0406 24.0675C23.0406 23.8219 22.841 23.6222 22.5953 23.6222H5.09158ZM5.09158 26.0937C4.84518 26.0937 4.64627 26.2934 4.64627 26.539C4.64627 26.7847 4.84592 26.9843 5.09158 26.9843H22.5953C22.8417 26.9843 23.0406 26.7847 23.0406 26.539C23.0406 26.2926 22.841 26.0937 22.5953 26.0937H5.09158ZM14.7645 12.6193L15.6685 12.5844C16.2155 12.5629 16.7372 12.7648 17.1403 13.1522C17.5522 13.5493 17.7889 14.1022 17.7889 14.6692C17.7889 15.7929 16.8723 16.7088 15.7026 16.7548L14.7987 16.7896C14.7927 16.7896 14.7875 16.7896 14.7816 16.7896C14.6665 16.7896 14.556 16.7451 14.4728 16.6657C14.3853 16.5818 14.3363 16.4661 14.3363 16.3451V13.0646C14.3363 12.8256 14.5255 12.6289 14.7645 12.6193ZM13.3744 12.6772C13.1287 12.6772 12.9291 12.8768 12.9291 13.1225V15.0633C12.9291 15.5242 12.5543 15.899 12.0941 15.899C11.6332 15.899 11.2584 15.5242 11.2584 15.0633V13.1225C11.2584 12.8768 11.0588 12.6772 10.8131 12.6772C10.5667 12.6772 10.3678 12.8768 10.3678 13.1225V15.0633C10.3678 16.0155 11.1419 16.7896 12.0941 16.7896C13.0456 16.7896 13.8197 16.0155 13.8197 15.0633V13.1225C13.8204 12.8776 13.6208 12.6772 13.3744 12.6772ZM8.61326 12.8293L10.2721 16.1462C10.3819 16.3659 10.2928 16.6338 10.0724 16.7436C10.0086 16.7755 9.94029 16.7904 9.8735 16.7904C9.71021 16.7904 9.55287 16.6998 9.47494 16.544L8.93611 15.4663H7.4933L6.95447 16.544C6.84463 16.7637 6.57744 16.8535 6.35701 16.7436C6.13732 16.633 6.04752 16.3659 6.15811 16.1462L7.81615 12.8293C7.89186 12.6787 8.04549 12.5829 8.21471 12.5829C8.38393 12.5829 8.53756 12.6779 8.61326 12.8293ZM19.2577 16.3443V13.0275C19.2577 12.7811 19.0588 12.5822 18.8124 12.5822C18.5667 12.5822 18.3671 12.7811 18.3671 13.0275V16.3443C18.3671 16.5907 18.5667 16.7896 18.8124 16.7896C19.0588 16.7896 19.2577 16.5907 19.2577 16.3443ZM17.0022 5.8832C17.0022 6.9757 16.1131 7.86484 15.0206 7.86484C13.9281 7.86484 13.0389 6.9757 13.0389 5.8832C13.0389 4.7907 13.9281 3.90156 15.0206 3.90156C16.1131 3.90156 17.0022 4.7907 17.0022 5.8832ZM20.4133 9.48355H9.62709C8.32604 9.48355 7.26693 8.42445 7.26693 7.1234C7.26693 5.82234 8.32604 4.76324 9.62709 4.76324H11.156C11.3497 4.76324 11.5219 4.63781 11.5805 4.45301C12.034 3.02727 13.3922 2.03125 14.8825 2.03125H15.1594C16.6497 2.03125 18.0079 3.02727 18.4613 4.45301C18.52 4.63781 18.6922 4.76324 18.8859 4.76324H20.4148C21.7158 4.76324 22.7749 5.82234 22.7749 7.1234C22.7735 8.4252 21.7151 9.48355 20.4133 9.48355Z" fill="white"/>
</svg>
