<svg width="37" height="34" viewBox="0 0 37 34" fill="none" xmlns="http://www.w3.org/2000/svg">
<path fill-rule="evenodd" clip-rule="evenodd" d="M18.4427 10.9597V10.2319C18.2458 10.3004 18.0403 10.3347 17.8348 10.3347H17.6207V10.9512C17.6207 11.3536 17.2954 11.679 16.8929 11.679H14.0588C14.0674 11.756 14.076 11.8331 14.076 11.9101V12.0899V12.0985V12.2783C14.076 12.3554 14.0674 12.4324 14.0588 12.5095H16.8929C17.7492 12.5181 18.4427 11.816 18.4427 10.9597Z" fill="white"/>
<path fill-rule="evenodd" clip-rule="evenodd" d="M2.85138 30.6786H20.2156L20.2927 29.5827C20.2927 29.5741 20.2927 29.5741 20.2927 29.5655L20.8749 21.5427C20.9006 21.1831 20.7979 20.8834 20.5496 20.618C20.3013 20.3526 20.0102 20.2241 19.6505 20.2241H3.40793C3.04831 20.2241 2.74863 20.3526 2.50889 20.618C2.26058 20.8834 2.15784 21.1831 2.18352 21.5427L2.85138 30.6786Z" fill="white"/>
<path fill-rule="evenodd" clip-rule="evenodd" d="M20.6093 31.501H20.6007C20.5921 31.501 20.5921 31.501 20.5836 31.501H2.48296H2.4744C2.26034 31.501 2.09766 31.6722 2.09766 31.8863V32.811C2.09766 33.0251 2.2689 33.1963 2.4744 33.1963H20.6007C20.8148 33.1963 20.9774 33.0251 20.9774 32.8196V31.8948C20.9774 31.6808 20.8148 31.5095 20.6093 31.501Z" fill="white"/>
<path fill-rule="evenodd" clip-rule="evenodd" d="M16.6619 16.4058H15.0693L13.1514 19.4026H19.6501C20.2324 19.4026 20.7547 19.6252 21.1485 20.0533C21.5509 20.4814 21.7308 21.0123 21.6965 21.6031L21.1485 29.1978H23.0579V22.8018C23.0579 19.2741 20.181 16.4058 16.6619 16.4058Z" fill="white"/>
<path fill-rule="evenodd" clip-rule="evenodd" d="M14.4363 14.7529C13.5887 15.2667 12.5954 15.5578 11.5337 15.5578C10.472 15.5578 9.47877 15.2581 8.6311 14.7529V15.8746L10.8915 19.4022H12.1759L14.4363 15.8746V14.7529Z" fill="white"/>
<path fill-rule="evenodd" clip-rule="evenodd" d="M3.40778 19.4026H9.90654L7.98859 16.4058H6.39601C2.86836 16.4058 0 19.2741 0 22.8018V29.1978H1.90938L1.35284 21.6031C1.31003 21.0208 1.4984 20.4814 1.90082 20.0533C2.30325 19.6252 2.82555 19.4026 3.40778 19.4026Z" fill="white"/>
<path fill-rule="evenodd" clip-rule="evenodd" d="M6.11348 5.93436C6.46454 5.48056 7.45776 4.32466 8.70785 4.07635C8.96472 4.02498 9.21302 4.07635 9.42708 4.21335C10.4289 4.87264 13.6911 6.46522 16.6793 5.93436C16.705 5.9258 16.7393 5.9258 16.7649 5.9258H17.6297H17.6554V5.1552C17.6554 2.31253 15.3436 0.00927734 12.5009 0.00927734H10.5659C7.72319 0.00927734 5.41138 2.32109 5.41138 5.1552V5.9258H5.43706L6.11348 5.93436Z" fill="white"/>
<path fill-rule="evenodd" clip-rule="evenodd" d="M27.5702 8.99894C28.1867 9.12737 28.8203 9.19587 29.471 9.19587C33.0843 9.19587 36.0212 7.13236 36.0212 4.59793C36.0212 2.0635 33.0843 0 29.471 0C25.8578 0 22.9209 2.0635 22.9209 4.59793C22.9209 5.71103 23.5031 6.78987 24.5649 7.62897C24.659 7.70604 24.719 7.82591 24.719 7.95434V10.523L27.2791 9.04175C27.3647 8.99037 27.4675 8.98181 27.5702 8.99894ZM26.5513 2.80842H32.3736C32.6048 2.80842 32.7846 2.99679 32.7846 3.21941C32.7846 3.44203 32.6048 3.6304 32.3736 3.6304H26.5513C26.3201 3.6304 26.1403 3.45059 26.1403 3.21941C26.1403 2.98823 26.3287 2.80842 26.5513 2.80842ZM26.1403 5.98502C26.1403 5.75384 26.3201 5.57403 26.5513 5.57403H32.3736C32.6048 5.57403 32.7846 5.7624 32.7846 5.98502C32.7846 6.20764 32.6048 6.39601 32.3736 6.39601H26.5513C26.3287 6.39601 26.1403 6.2162 26.1403 5.98502Z" fill="white"/>
<path fill-rule="evenodd" clip-rule="evenodd" d="M35.9529 21.7059L35.3193 21.3377C35.1566 21.2435 35.0795 21.0551 35.1309 20.8753C35.2422 20.4815 35.2936 20.079 35.2936 19.6766C35.2936 19.2656 35.2422 18.8632 35.1309 18.4779C35.0795 18.2981 35.1566 18.1097 35.3193 18.0155L35.9614 17.6474C36.0214 17.6131 36.0385 17.536 36.0043 17.4847L35.3107 16.2774C35.2765 16.2175 35.1994 16.2003 35.148 16.2346L34.5059 16.6028C34.3432 16.6969 34.1377 16.6713 34.0093 16.5343C33.4356 15.952 32.7163 15.5325 31.9286 15.3355C31.7488 15.2842 31.6204 15.1215 31.6204 14.9417V14.2053C31.6204 14.1368 31.5604 14.0854 31.5005 14.0854H30.1049C30.0364 14.0854 29.985 14.1454 29.985 14.2053V14.9417C29.985 15.13 29.8566 15.2927 29.6767 15.3355C28.889 15.541 28.1698 15.952 27.5961 16.5343C27.4677 16.6713 27.2622 16.6969 27.0995 16.6028L26.4573 16.2346C26.3974 16.2003 26.3203 16.226 26.2947 16.2774L25.6011 17.4847C25.5754 17.5189 25.584 17.5617 25.5925 17.5789C25.6011 17.596 25.6097 17.6302 25.6525 17.6559L26.2947 18.0241C26.4573 18.1183 26.5344 18.3066 26.483 18.4865C26.3717 18.8718 26.3203 19.2827 26.3203 19.6852C26.3203 20.0962 26.3717 20.4986 26.483 20.8839C26.5344 21.0637 26.4573 21.2521 26.2947 21.3462L25.661 21.7144C25.6268 21.7316 25.6097 21.7744 25.6011 21.7915C25.5925 21.8086 25.5925 21.8429 25.6097 21.8857L26.3032 23.0929C26.3375 23.1529 26.4145 23.17 26.4659 23.1358L27.1081 22.7676C27.2708 22.6734 27.4762 22.6991 27.6047 22.8361C27.853 23.0929 28.1355 23.3156 28.4352 23.5039V22.0997C27.8102 21.4832 27.4249 20.627 27.4249 19.6852C27.4249 18.3495 28.2126 17.1422 29.4284 16.5942C29.5569 16.5343 29.7024 16.5514 29.8223 16.6199C29.9422 16.6969 30.0107 16.8254 30.0107 16.9624V18.8632C30.0107 19.3084 30.3703 19.668 30.8155 19.668C31.2608 19.668 31.6204 19.3084 31.6204 18.8632V16.9538C31.6204 16.8168 31.6889 16.6884 31.8087 16.6113C31.9286 16.5343 32.0742 16.5257 32.2026 16.5856C33.4185 17.1336 34.2062 18.3409 34.2062 19.6766C34.2062 20.6185 33.8209 21.4747 33.1958 22.0912V23.4954C33.4955 23.307 33.7695 23.0844 34.0264 22.8275C34.1548 22.6905 34.3603 22.6648 34.523 22.759L35.1652 23.1272C35.1994 23.1443 35.2422 23.1443 35.2593 23.1358C35.2765 23.1272 35.3107 23.1186 35.3364 23.0758L36.0299 21.8685C36.0299 21.8086 36.0128 21.7401 35.9529 21.7059Z" fill="white"/>
<path fill-rule="evenodd" clip-rule="evenodd" d="M32.4252 17.6812V18.8542C32.4252 19.7532 31.6975 20.481 30.7984 20.481C29.8994 20.481 29.1716 19.7532 29.1716 18.8542V17.6812C28.5894 18.1606 28.2297 18.8884 28.2297 19.6676C28.2297 21.0804 29.3771 22.2363 30.7984 22.2363C32.2112 22.2363 33.3671 21.0804 33.3671 19.6676C33.3585 18.8884 33.0075 18.1692 32.4252 17.6812Z" fill="white"/>
<path fill-rule="evenodd" clip-rule="evenodd" d="M29.2314 22.6817V24.1544V24.1715V32.0488C29.2314 32.3485 29.3513 32.6396 29.5654 32.8536C29.7794 33.0677 30.062 33.1876 30.3702 33.1876H31.2093C31.8344 33.1876 32.3481 32.6824 32.3481 32.0488V24.1629C32.3481 24.1544 32.3481 24.1544 32.3481 24.1458V22.6646C31.8857 22.9043 31.3549 23.0413 30.7898 23.0413C30.2332 23.0584 29.7024 22.9214 29.2314 22.6817Z" fill="white"/>
<path fill-rule="evenodd" clip-rule="evenodd" d="M5.23153 9.52147H5.90794V6.75586H5.23153C5.12878 6.75586 5.03459 6.77298 4.94041 6.79867C4.93185 6.79867 4.92328 6.80723 4.92328 6.80723C4.55511 6.93567 4.28968 7.28672 4.28968 7.70627V8.57106C4.28111 9.09336 4.70923 9.52147 5.23153 9.52147Z" fill="white"/>
<path fill-rule="evenodd" clip-rule="evenodd" d="M17.1587 6.75586V9.52147H17.8351C18.0406 9.52147 18.229 9.45297 18.3917 9.34166C18.4002 9.3331 18.4173 9.32454 18.4259 9.31598C18.6485 9.14473 18.7941 8.87074 18.7941 8.57106V7.70627C18.7941 7.28672 18.5287 6.93567 18.1519 6.80723C18.1434 6.80723 18.1434 6.80723 18.1348 6.79867C18.0406 6.76442 17.9464 6.75586 17.8437 6.75586H17.1587Z" fill="white"/>
<path fill-rule="evenodd" clip-rule="evenodd" d="M13.2543 11.9272C13.2543 11.6104 12.9974 11.3535 12.6806 11.3535H11.2336C10.9168 11.3535 10.6599 11.6104 10.6599 11.9272V12.2868C10.6599 12.6036 10.9168 12.8605 11.2336 12.8605H12.6806C12.9974 12.8605 13.2543 12.6036 13.2543 12.2868V12.107C13.2543 12.107 13.2543 12.107 13.2543 12.0984C13.2543 12.0984 13.2543 12.0984 13.2543 12.0899V11.9272Z" fill="white"/>
<path fill-rule="evenodd" clip-rule="evenodd" d="M14.6242 13.6056C14.8297 13.4343 15.0266 13.2374 15.1978 13.0319H13.8536C13.6052 13.4257 13.1686 13.6826 12.672 13.6826H11.2249C10.4543 13.6826 9.82929 13.0576 9.82929 12.287V11.9274C9.82929 11.1567 10.4543 10.5317 11.2249 10.5317H12.672C13.1686 10.5317 13.6052 10.7886 13.8536 11.1824H16.1654C16.2767 10.78 16.328 10.369 16.328 9.93234V6.81568C16.0112 6.84993 15.703 6.86705 15.3948 6.86705C12.0127 6.86705 8.99875 4.92342 8.9645 4.89773C8.93026 4.87205 8.89601 4.87205 8.85319 4.88061C7.92847 5.06042 7.06368 6.01083 6.72119 6.47319V9.92378V9.93234C6.72119 11.4051 7.38905 12.7236 8.42508 13.6056C8.45933 13.6227 8.48502 13.6484 8.5107 13.6741C9.33268 14.3419 10.3858 14.7358 11.5246 14.7358C12.6634 14.7358 13.7166 14.3333 14.5385 13.6741C14.5728 13.6484 14.5985 13.6227 14.6242 13.6056Z" fill="white"/>
</svg>
