<svg width="37" height="37" viewBox="0 0 37 37" fill="none" xmlns="http://www.w3.org/2000/svg">
<path d="M29.7291 12.0126C26.5825 8.65703 20.8047 11.0609 20.8484 15.639C20.7917 18.4272 23.2566 20.8926 26.0452 20.8357C30.5871 20.8832 33.0056 15.1675 29.7291 12.0126ZM25.6121 15.0615H26.4782C28.8623 15.1161 28.9942 18.5696 26.6225 18.7974C26.6226 18.7974 26.6226 19.1034 26.6226 19.1034C26.6226 19.421 26.3627 19.6809 26.0452 19.6809C25.7276 19.6809 25.4677 19.421 25.4677 19.1034V18.8147H24.3129C23.5549 18.7993 23.5537 17.6751 24.3129 17.6599C24.3129 17.6599 26.4782 17.6599 26.4782 17.6599C27.4269 17.643 27.4269 16.2329 26.4782 16.2163H25.6121C23.228 16.1617 23.0962 12.7081 25.4678 12.4803C25.4677 12.4803 25.4677 12.1743 25.4677 12.1743C25.4677 11.8567 25.7276 11.5969 26.0452 11.5969C26.3627 11.5969 26.6226 11.8567 26.6226 12.1743V12.463H27.7774C28.095 12.463 28.3549 12.7229 28.3549 13.0405C28.3549 13.358 28.095 13.6179 27.7774 13.6179H25.6121C24.6634 13.6348 24.6634 15.0448 25.6121 15.0615Z" fill="white"/>
<path d="M32.1717 9.51233C23.7091 1.72265 12.1285 13.3021 19.9188 21.7654C20.5481 22.3889 21.2584 22.9086 22.0379 23.3186C23.3371 23.9884 24.1686 25.2298 24.2898 26.6099H23.1581C22.4017 26.623 22.3981 27.7507 23.1581 27.7648C23.1581 27.7648 23.7355 27.7648 23.7355 27.7648V32.3984C23.8274 35.4468 28.2569 35.4543 28.3549 32.3984V27.7648H28.9323C29.6895 27.7498 29.6922 26.6251 28.9323 26.6099H27.8006C27.9218 25.2299 28.7533 23.9884 30.0525 23.3186C35.1758 20.7472 36.3007 13.5072 32.1717 9.51233ZM26.0452 21.9905C22.6303 22.0626 19.6211 19.054 19.6936 15.6388C19.6447 10.0248 26.6882 7.12912 30.5492 11.1985C34.5436 15.0558 31.6102 22.0507 26.0452 21.9905Z" fill="white"/>
<path d="M18.5 28.9063C12.765 28.9063 8.09376 24.2408 8.09376 18.5C8.09376 12.7592 12.765 8.09376 18.5 8.09376C18.922 8.09376 19.3325 8.11687 19.743 8.16891C21.0727 7.03578 22.6741 6.24953 24.3737 5.93732C23.2464 5.40546 22.0439 5.02969 20.8125 4.82155V3.46875C20.8125 2.83279 20.2922 2.3125 19.6563 2.3125H17.3438C16.7078 2.3125 16.1875 2.83279 16.1875 3.46875V4.82155C14.1294 5.16844 12.1695 5.9778 10.4641 7.19188L9.50439 6.23796C9.05343 5.78704 8.32502 5.78704 7.87407 6.23796L6.23796 7.87407C6.01828 8.08797 5.89689 8.38282 5.89689 8.68921C5.89689 8.99563 6.01827 9.29048 6.23796 9.50438L7.19188 10.4641C5.97783 12.1695 5.16844 14.1294 4.82158 16.1875H3.46875C2.83282 16.1875 2.3125 16.7078 2.3125 17.3438V19.6562C2.3125 20.2922 2.83282 20.8125 3.46875 20.8125H4.82158C5.16844 22.8706 5.97783 24.8305 7.19188 26.5359L6.23796 27.4956C5.78704 27.9465 5.78704 28.675 6.23796 29.1259L7.87407 30.762C8.30766 31.2014 9.07079 31.2014 9.50439 30.762L10.4641 29.8081C12.1695 31.0222 14.1294 31.8316 16.1875 32.1784V33.5313C16.1875 34.1672 16.7078 34.6875 17.3438 34.6875H19.6563C20.2922 34.6875 20.8125 34.1672 20.8125 33.5313V32.1784C21.4137 32.0802 22.0034 31.9356 22.5816 31.7564V28.8195C22.2983 28.7213 22.0555 28.5594 21.8705 28.3455C20.8125 28.7097 19.6794 28.9063 18.5 28.9063Z" fill="white"/>
<path d="M21.4311 27.1892C21.4311 27.2181 21.4311 27.2412 21.4369 27.2701C20.5119 27.5823 19.5233 27.75 18.5 27.75C13.4009 27.75 9.25 23.5991 9.25 18.5C9.25 13.4009 13.4009 9.25 18.5 9.25C18.5463 9.25 18.5925 9.25 18.6387 9.25579C17.9681 10.0189 17.4073 10.8919 16.9911 11.8458C15.4013 15.4822 16.1528 19.3845 19.107 22.5873C19.8123 23.2869 20.6159 23.8766 21.5063 24.3448C22.0381 24.6165 22.4601 25.0212 22.7492 25.5011C21.9745 25.6803 21.4311 26.3509 21.4311 27.1892Z" fill="white"/>
</svg>
