<svg width="35" height="26" viewBox="0 0 35 26" fill="none" xmlns="http://www.w3.org/2000/svg">
<path fill-rule="evenodd" clip-rule="evenodd" d="M2.07642 18.7518V0.477349C2.07642 0.198895 2.29918 0 2.57763 0H31.9107C32.1891 0 32.4119 0.230718 32.4119 0.477349V18.7518H20.518H2.07642ZM18.0119 14.7182H10.9074C10.6448 14.7182 10.438 14.5114 10.438 14.2489C10.438 13.9863 10.6448 13.7795 10.9074 13.7795H18.0119C18.2744 13.7795 18.4813 13.9863 18.4813 14.2489C18.4813 14.5114 18.2426 14.7182 18.0119 14.7182ZM16.9697 12.0849H10.9074C10.6448 12.0849 10.438 11.878 10.438 11.6155C10.438 11.3609 10.6448 11.154 10.9074 11.154H16.9697C17.2322 11.154 17.4152 11.3609 17.4152 11.6155C17.4152 11.878 17.2322 12.0849 16.9697 12.0849ZM16.9697 9.48332H10.9074C10.6448 9.48332 10.438 9.27647 10.438 9.01393C10.438 8.75935 10.6448 8.54454 10.9074 8.54454H16.9697C17.2322 8.54454 17.4152 8.75935 17.4152 9.01393C17.4152 9.27647 17.2322 9.48332 16.9697 9.48332ZM16.9697 6.88177H10.9074C10.6448 6.88177 10.438 6.67492 10.438 6.41238C10.438 6.14984 10.6448 5.94299 10.9074 5.94299H16.9697C17.2322 5.94299 17.4152 6.14984 17.4152 6.41238C17.4152 6.67492 17.2322 6.88177 16.9697 6.88177ZM18.0119 4.28022H10.9074C10.6448 4.28022 10.438 4.07337 10.438 3.81083C10.438 3.54829 10.6448 3.34144 10.9074 3.34144H18.0119C18.2744 3.34144 18.4813 3.54829 18.4813 3.81083C18.4813 4.07337 18.2426 4.28022 18.0119 4.28022ZM24.1538 13.2623H22.1728V15.9912C22.1728 17.0095 21.3454 17.8449 20.3032 17.8449H12.3076C11.504 17.8449 10.8039 17.3278 10.5494 16.5879H10.438C9.41963 16.5879 8.58427 15.7605 8.58427 14.7421V3.31757C8.58427 2.29923 9.41963 1.46387 10.438 1.46387H18.4256C19.2212 1.46387 19.9054 1.981 20.1679 2.68906H20.3032C21.3136 2.68906 22.1489 3.52442 22.1489 4.53481V5.57702H25.4028C25.6654 5.57702 25.8722 5.78387 25.8722 6.04641V12.7611C25.8484 13.0475 25.6654 13.2305 25.4028 13.2305H24.3129C24.2652 13.2464 24.2095 13.2623 24.1538 13.2623ZM11.5677 16.5879C11.7427 16.8106 12.0132 16.9538 12.3076 16.9538H20.3032C20.8203 16.9538 21.242 16.5401 21.242 16.015V13.2623H20.3032V14.7182C20.3032 15.7605 19.4678 16.5879 18.4256 16.5879H11.5677ZM19.3644 13.2305H18.6086C18.346 13.2305 18.1392 13.0237 18.1392 12.7611V6.04641C18.1392 5.78387 18.346 5.57702 18.6086 5.57702H19.3405V3.31757C19.3405 2.79249 18.9189 2.37879 18.4017 2.37879H10.438C9.91289 2.37879 9.49919 2.79249 9.49919 3.31757V14.7182C9.49919 15.2354 9.91289 15.657 10.438 15.657H18.4256C18.9507 15.657 19.3644 15.2115 19.3644 14.7182V13.2305ZM20.2793 5.57702H21.242V4.56663C21.242 4.04155 20.8203 3.62785 20.3032 3.62785H20.2793V5.57702ZM19.4201 12.3235V12.1167C19.4201 10.6847 20.5896 9.50719 22.0216 9.50719C23.4537 9.50719 24.6232 10.6847 24.6232 12.1167V12.3235H24.9335V6.51581H21.7114H19.8099H19.078V12.3235H19.4201ZM23.7083 12.3235V12.1406C23.7083 11.2018 22.9604 10.446 22.0216 10.446C21.0828 10.446 20.327 11.2018 20.327 12.1406V12.3235H23.7083ZM22.0216 9.3799C21.2897 9.3799 20.6691 8.75935 20.6691 8.02741C20.6691 7.27161 21.2658 6.67492 22.0216 6.67492C22.7774 6.67492 23.3741 7.27161 23.3741 8.02741C23.3741 8.78321 22.7456 9.3799 22.0216 9.3799ZM22.0216 7.58189C21.783 7.58189 21.5761 7.78874 21.5761 8.02741C21.5761 8.25813 21.783 8.47294 22.0216 8.47294C22.2523 8.47294 22.4592 8.25813 22.4592 8.02741C22.4592 7.76487 22.2523 7.58189 22.0216 7.58189Z" fill="white"/>
<path fill-rule="evenodd" clip-rule="evenodd" d="M33.9872 25.5224H0.501216C0.222763 25.5224 0 25.2996 0 25.0212V20.1999C0 19.9215 0.222763 19.6987 0.501216 19.6987H13.0237V22.6106C13.0237 22.889 13.2544 23.1197 13.5328 23.1197H20.9317C21.2102 23.1197 21.4329 22.889 21.4568 22.6424V19.6987H33.9872C34.2657 19.6987 34.4884 19.9215 34.4884 20.1999V25.053C34.4566 25.2996 34.2338 25.5224 33.9872 25.5224ZM14.034 19.6987H20.4544V22.165H14.034V19.6987Z" fill="white"/>
</svg>
