<?xml version="1.0" encoding="UTF-8"?>
<svg xmlns="http://www.w3.org/2000/svg" xmlns:xlink="http://www.w3.org/1999/xlink" width="520px" height="273px" viewBox="0 0 519 273" version="1.1">
<g id="surface1">
<path style=" stroke:none;fill-rule:nonzero;fill:rgb(94.901961%,94.901961%,94.901961%);fill-opacity:1;" d="M 516.289062 199 C 513.578125 216.304688 505.214844 233.109375 491.402344 243.738281 C 477.808594 254.210938 460.382812 257.933594 443.574219 261.132812 C 423.414062 264.964844 403.191406 268.476562 382.917969 271.664062 C 380.035156 272.121094 377.160156 272.566406 374.285156 273 L 256.179688 273 C 256.066406 272.835938 255.941406 272.667969 255.816406 272.503906 C 255.621094 272.222656 255.433594 271.945312 255.242188 271.664062 C 255.144531 271.5 255.03125 271.335938 254.925781 271.167969 L 329 271.167969 C 333.382812 271.15625 336.933594 267.59375 336.933594 263.175781 L 336.933594 163.503906 C 337.417969 161.992188 337.855469 160.46875 338.265625 158.933594 C 340.148438 151.773438 341.378906 144.449219 341.9375 137.046875 C 342.332031 131.890625 342.457031 126.738281 342.371094 121.582031 C 342.125 107.40625 340.273438 93.222656 338.289062 79.152344 C 338.132812 78.117188 337.984375 77.070312 337.84375 76.035156 C 336.4375 66.242188 335.144531 55.605469 340.046875 47.035156 C 345.640625 37.222656 358.054688 33.132812 369.246094 34.136719 C 389.363281 35.957031 406.304688 51.476562 415.109375 69.8125 C 423.917969 88.128906 425.894531 108.960938 426.691406 129.304688 C 427.125 140.09375 427.074219 151.367188 425.578125 162.183594 C 430.621094 150.550781 435.675781 138.921875 440.71875 127.296875 C 443.417969 121.085938 446.253906 114.6875 451.25 110.140625 C 461.675781 100.648438 478.9375 102.5625 490.085938 111.207031 C 501.222656 119.871094 507.332031 133.527344 511.386719 147.101562 C 516.425781 163.871094 518.988281 181.683594 516.289062 199 Z M 516.289062 199 "/>
<path style=" stroke:none;fill-rule:nonzero;fill:rgb(100%,100%,100%);fill-opacity:1;" d="M 471.773438 104.976562 C 479.074219 118 482.417969 132.945312 482.34375 147.847656 C 482.230469 162.625 478.984375 177.210938 472.828125 190.617188 C 467.25 202.730469 459.496094 213.6875 449.945312 222.941406 C 440.515625 232.15625 429.339844 239.371094 417.074219 244.105469 C 402.832031 249.488281 387.4375 250.960938 372.460938 248.382812 C 370.371094 248.027344 368.304688 247.582031 366.253906 247.074219 C 365.011719 246.757812 364.476562 248.699219 365.730469 249.007812 C 381.316406 252.902344 397.679688 252.4375 413.019531 247.632812 C 425.792969 243.496094 437.585938 236.730469 447.648438 227.777344 C 457.847656 218.789062 466.277344 207.960938 472.496094 195.847656 C 479.3125 182.582031 483.28125 168.023438 484.164062 153.117188 C 485.03125 137.984375 482.519531 122.585938 476.03125 108.863281 C 475.234375 107.199219 474.398438 105.5625 473.5 103.960938 C 473.207031 103.503906 472.609375 103.351562 472.15625 103.628906 C 471.6875 103.898438 471.523438 104.496094 471.773438 104.976562 Z M 471.773438 104.976562 "/>
<path style=" stroke:none;fill-rule:nonzero;fill:rgb(100%,100%,100%);fill-opacity:1;" d="M 366.101562 33.867188 C 374.179688 48.902344 380.496094 64.84375 384.875 81.367188 C 393.65625 114.460938 394.992188 149.109375 388.753906 182.773438 C 385.640625 199.605469 380.558594 215.996094 373.628906 231.617188 C 366.710938 247.105469 356.75 263.425781 339.746094 268.847656 C 337.820312 269.457031 335.855469 269.902344 333.867188 270.171875 C 332.597656 270.347656 333.128906 272.277344 334.386719 272.109375 C 351.984375 269.675781 364.210938 254.933594 371.882812 239.917969 C 379.808594 224.378906 385.464844 207.503906 389.210938 190.46875 C 396.664062 156.472656 396.398438 121.214844 388.425781 87.34375 C 384.472656 70.457031 378.566406 54.117188 370.828125 38.628906 C 369.855469 36.691406 368.851562 34.773438 367.808594 32.851562 C 367.207031 31.722656 365.480469 32.738281 366.101562 33.867188 Z M 366.101562 33.867188 "/>
<path style=" stroke:none;fill-rule:nonzero;fill:rgb(80.000001%,80.000001%,80.000001%);fill-opacity:1;" d="M 282.824219 30.949219 L 163.605469 30.949219 C 158.578125 30.964844 154.492188 35.078125 154.484375 40.152344 L 154.484375 100.367188 L 172.832031 100.367188 C 175.554688 100.355469 178.105469 101.777344 179.546875 104.101562 L 185.894531 114.3125 L 191.976562 124.058594 L 193.117188 125.898438 L 200.074219 137.046875 L 200.160156 137.171875 L 291.949219 137.171875 L 291.949219 40.152344 C 291.949219 35.078125 287.859375 30.964844 282.824219 30.949219 Z M 282.824219 30.949219 "/>
<path style=" stroke:none;fill-rule:nonzero;fill:rgb(100%,100%,100%);fill-opacity:1;" d="M 235.566406 49.355469 L 176.503906 49.355469 C 173.234375 49.355469 170.597656 52.027344 170.597656 55.316406 C 170.597656 58.601562 173.234375 61.269531 176.503906 61.269531 L 235.566406 61.269531 C 238.832031 61.269531 241.46875 58.601562 241.46875 55.316406 C 241.46875 52.027344 238.832031 49.355469 235.566406 49.355469 Z M 235.566406 49.355469 "/>
<path style=" stroke:none;fill-rule:nonzero;fill:rgb(100%,100%,100%);fill-opacity:1;" d="M 268.332031 78.582031 L 177.039062 78.582031 C 173.472656 78.582031 170.585938 81.492188 170.585938 85.085938 C 170.585938 88.675781 173.472656 91.585938 177.039062 91.585938 L 268.332031 91.585938 C 271.890625 91.585938 274.769531 88.675781 274.769531 85.085938 C 274.769531 81.492188 271.890625 78.582031 268.332031 78.582031 Z M 268.332031 78.582031 "/>
<path style=" stroke:none;fill-rule:nonzero;fill:rgb(100%,100%,100%);fill-opacity:1;" d="M 274.160156 105.066406 C 273.09375 102.78125 270.828125 101.320312 268.332031 101.320312 L 177.039062 101.320312 C 176.898438 101.320312 176.773438 101.332031 176.628906 101.332031 C 177.824219 101.992188 178.820312 102.945312 179.546875 104.101562 L 185.894531 114.3125 L 268.332031 114.3125 C 270.535156 114.3125 272.574219 113.175781 273.765625 111.300781 C 274.945312 109.433594 275.097656 107.074219 274.160156 105.066406 Z M 274.160156 105.066406 "/>
<path style=" stroke:none;fill-rule:nonzero;fill:rgb(100%,100%,100%);fill-opacity:1;" d="M 274.707031 129.683594 C 274.273438 126.457031 271.550781 124.058594 268.332031 124.058594 L 191.976562 124.058594 L 193.117188 125.898438 L 200.074219 137.046875 L 268.332031 137.046875 C 269.675781 137.046875 270.980469 136.625 272.070312 135.839844 C 273.753906 134.625 274.769531 132.652344 274.769531 130.546875 C 274.769531 130.253906 274.746094 129.976562 274.707031 129.683594 Z M 274.707031 129.683594 "/>
<path style=" stroke:none;fill-rule:nonzero;fill:rgb(11.764706%,53.333336%,89.803922%);fill-opacity:1;" d="M 347.574219 82.808594 L 338.289062 79.140625 L 291.949219 60.921875 L 236.515625 39.113281 C 231.828125 37.273438 226.53125 39.621094 224.695312 44.34375 L 222.757812 49.355469 L 218.144531 61.269531 L 211.441406 78.582031 L 206.40625 91.585938 L 202.644531 101.320312 L 197.613281 114.3125 L 193.828125 124.058594 L 193.726562 124.335938 L 193.117188 125.898438 L 200.074219 137.046875 L 200.160156 137.171875 L 329 137.171875 C 331.398438 137.171875 333.664062 138.261719 335.171875 140.144531 L 335.714844 138.757812 L 342.371094 121.582031 L 352.757812 94.734375 C 354.582031 89.996094 352.261719 84.664062 347.574219 82.808594 Z M 347.574219 82.808594 "/>
<path style=" stroke:none;fill-rule:nonzero;fill:rgb(100%,100%,100%);fill-opacity:1;" d="M 296.914062 82.632812 L 291.949219 80.675781 L 241.886719 60.992188 C 238.84375 59.808594 235.441406 61.320312 234.230469 64.367188 C 233.054688 67.441406 234.5625 70.878906 237.59375 72.082031 L 254.128906 78.582031 L 274.578125 86.636719 L 291.949219 93.460938 L 292.621094 93.730469 C 295.660156 94.921875 299.085938 93.398438 300.261719 90.34375 C 301.453125 87.28125 299.945312 83.839844 296.914062 82.632812 Z M 296.914062 82.632812 "/>
<path style=" stroke:none;fill-rule:nonzero;fill:rgb(100%,100%,100%);fill-opacity:1;" d="M 316.886719 121.871094 L 291.949219 112.0625 L 274.160156 105.066406 L 264.660156 101.320312 L 239.898438 91.585938 L 231.851562 88.410156 C 228.738281 87.1875 225.210938 88.5625 223.730469 91.585938 C 223.652344 91.75 223.566406 91.925781 223.503906 92.105469 C 222.210938 95.445312 223.84375 99.214844 227.164062 100.511719 L 229.214844 101.320312 L 262.222656 114.3125 L 291.949219 126 L 312.199219 133.972656 C 312.945312 134.265625 313.730469 134.417969 314.527344 134.417969 C 317.632812 134.417969 320.296875 132.195312 320.878906 129.125 C 321.449219 126.050781 319.773438 123.007812 316.886719 121.871094 Z M 316.886719 121.871094 "/>
<path style=" stroke:none;fill-rule:nonzero;fill:rgb(100%,100%,100%);fill-opacity:1;" d="M 291.949219 136.460938 L 290.355469 135.839844 L 274.707031 129.683594 L 260.410156 124.058594 L 235.628906 114.3125 L 223.640625 109.601562 C 221.5 108.75 219.066406 109.117188 217.265625 110.574219 C 215.46875 112.023438 214.578125 114.332031 214.921875 116.632812 C 215.28125 118.929688 216.8125 120.859375 218.964844 121.695312 L 224.960938 124.058594 L 254.898438 135.839844 L 257.980469 137.046875 L 258.296875 137.171875 L 293.75 137.171875 Z M 291.949219 136.460938 "/>
<path style=" stroke:none;fill-rule:nonzero;fill:rgb(100%,100%,100%);fill-opacity:1;" d="M 231.394531 137.046875 L 228.316406 135.839844 L 215.445312 130.773438 C 213.617188 130.050781 211.578125 130.203125 209.882812 131.191406 C 208.183594 132.183594 207.027344 133.882812 206.738281 135.839844 C 206.675781 136.230469 206.652344 136.636719 206.664062 137.046875 C 206.664062 137.082031 206.664062 137.132812 206.675781 137.171875 L 231.726562 137.171875 Z M 231.394531 137.046875 "/>
<path style=" stroke:none;fill-rule:nonzero;fill:rgb(24.705882%,23.921569%,33.725491%);fill-opacity:1;" d="M 257.980469 137.046875 L 254.898438 135.839844 L 206.738281 135.839844 C 206.675781 136.230469 206.652344 136.636719 206.664062 137.046875 L 200.074219 137.046875 L 200.160156 137.171875 L 258.296875 137.171875 Z M 257.980469 137.046875 L 200.074219 137.046875 L 200.160156 137.171875 L 258.296875 137.171875 Z M 257.980469 137.046875 L 200.074219 137.046875 L 200.160156 137.171875 L 258.296875 137.171875 Z M 258.296875 137.171875 L 257.980469 137.046875 L 200.074219 137.046875 L 200.160156 137.171875 Z M 142.128906 271.167969 C 137.757812 271.15625 134.210938 267.59375 134.210938 263.175781 L 134.210938 108.367188 C 134.210938 103.949219 137.757812 100.367188 142.128906 100.367188 L 154.484375 100.367188 L 154.484375 99.023438 L 142.128906 99.023438 C 137.023438 99.039062 132.882812 103.214844 132.882812 108.367188 L 132.882812 263.175781 C 132.882812 266.828125 134.996094 270.144531 138.304688 271.664062 L 255.242188 271.664062 C 255.144531 271.5 255.03125 271.335938 254.925781 271.167969 Z M 335.714844 138.757812 C 333.964844 136.894531 331.542969 135.839844 329 135.839844 L 200.894531 135.839844 L 193.726562 124.335938 L 193.546875 124.058594 L 187.476562 114.3125 L 180.660156 103.390625 C 178.964844 100.675781 176.007812 99.039062 172.832031 99.023438 L 142.128906 99.023438 C 137.023438 99.039062 132.882812 103.214844 132.882812 108.367188 L 132.882812 263.175781 C 132.882812 266.828125 134.996094 270.144531 138.304688 271.664062 C 139.503906 272.214844 140.808594 272.503906 142.128906 272.503906 L 329 272.503906 C 330.332031 272.503906 331.636719 272.214844 332.835938 271.664062 C 336.144531 270.144531 338.265625 266.828125 338.265625 263.175781 L 338.265625 145.167969 C 338.265625 142.785156 337.347656 140.484375 335.714844 138.757812 Z M 336.933594 263.175781 C 336.933594 267.59375 333.382812 271.15625 329 271.167969 L 142.128906 271.167969 C 137.757812 271.15625 134.210938 267.59375 134.210938 263.175781 L 134.210938 108.367188 C 134.210938 103.949219 137.757812 100.367188 142.128906 100.367188 L 172.832031 100.367188 C 175.554688 100.355469 178.105469 101.777344 179.546875 104.101562 L 185.894531 114.3125 L 191.976562 124.058594 L 193.117188 125.898438 L 200.074219 137.046875 L 200.160156 137.171875 L 329 137.171875 C 333.382812 137.171875 336.933594 140.753906 336.933594 145.167969 Z M 257.980469 137.046875 L 200.074219 137.046875 L 200.160156 137.171875 L 258.296875 137.171875 Z M 257.980469 137.046875 L 200.074219 137.046875 L 200.160156 137.171875 L 258.296875 137.171875 Z M 257.980469 137.046875 L 200.074219 137.046875 L 200.160156 137.171875 L 258.296875 137.171875 Z M 257.980469 137.046875 L 254.898438 135.839844 L 200.894531 135.839844 L 193.726562 124.335938 L 193.117188 125.898438 L 200.074219 137.046875 L 200.160156 137.171875 L 258.296875 137.171875 Z M 257.980469 137.046875 "/>
<path style=" stroke:none;fill-rule:nonzero;fill:rgb(100%,72.156864%,72.156864%);fill-opacity:1;" d="M 105.792969 192.550781 L 101.988281 200.558594 L 69.511719 189.59375 L 75.125 177.769531 Z M 105.792969 192.550781 "/>
<path style=" stroke:none;fill-rule:nonzero;fill:rgb(18.431373%,18.039216%,25.490198%);fill-opacity:1;" d="M 96.640625 205.941406 L 104.335938 189.746094 L 113.988281 194.386719 L 102.039062 219.578125 L 101.292969 219.222656 C 96.371094 216.851562 94.292969 210.890625 96.640625 205.941406 Z M 96.640625 205.941406 "/>
<path style=" stroke:none;fill-rule:nonzero;fill:rgb(100%,72.156864%,72.156864%);fill-opacity:1;" d="M 113.441406 264.113281 L 104.636719 263.808594 L 104.273438 229.253906 L 114.585938 229.875 Z M 113.441406 264.113281 "/>
<path style=" stroke:none;fill-rule:nonzero;fill:rgb(18.431373%,18.039216%,25.490198%);fill-opacity:1;" d="M 97.613281 261.03125 L 115.421875 261.640625 L 115.050781 272.417969 L 87.378906 271.476562 L 87.402344 270.652344 C 87.582031 265.152344 92.152344 260.851562 97.613281 261.03125 Z M 97.613281 261.03125 "/>
<path style=" stroke:none;fill-rule:nonzero;fill:rgb(18.431373%,18.039216%,25.490198%);fill-opacity:1;" d="M 127.621094 119.488281 C 127.621094 119.488281 100.671875 112.605469 88.457031 122.75 L 81.625 142.671875 L 54.304688 181.796875 L 93.839844 205.703125 L 101.027344 187.597656 L 83.78125 178.898438 L 104.625 160.789062 L 101.027344 256.421875 L 114.679688 258.601562 C 114.679688 258.601562 144.882812 140.496094 127.621094 119.488281 Z M 127.621094 119.488281 "/>
<path style=" stroke:none;fill-rule:nonzero;fill:rgb(11.764706%,53.333336%,89.803922%);fill-opacity:1;" d="M 86.730469 125.699219 L 87.0625 125.113281 C 90.519531 118.90625 89.964844 108.796875 88.882812 101.410156 C 87.972656 95.230469 88 84.320312 88.191406 76.273438 C 88.28125 70.671875 92.203125 65.890625 97.652344 64.75 C 105.855469 63.03125 115.910156 62.660156 121.183594 62.597656 L 121.195312 62.957031 L 121.183594 62.597656 C 124.164062 62.585938 126.605469 64.976562 126.6875 67.980469 C 126.84375 76.65625 126.800781 92.476562 124.660156 100.964844 C 121.488281 113.558594 126.441406 122.117188 126.492188 122.203125 L 126.800781 122.699219 Z M 86.730469 125.699219 "/>
<path style=" stroke:none;fill-rule:nonzero;fill:rgb(100%,72.156864%,72.156864%);fill-opacity:1;" d="M 72.871094 160.429688 C 74.640625 159.578125 75.953125 157.964844 76.441406 156.050781 C 76.925781 154.121094 76.542969 152.089844 75.394531 150.476562 L 90.609375 84.347656 L 79.105469 84.347656 L 65.683594 149.171875 C 63.0625 151.339844 62.476562 155.148438 64.304688 158.015625 C 66.140625 160.890625 69.816406 161.929688 72.871094 160.429688 Z M 72.871094 160.429688 "/>
<path style=" stroke:none;fill-rule:nonzero;fill:rgb(100%,72.156864%,72.156864%);fill-opacity:1;" d="M 165.355469 95.355469 L 139.976562 71.148438 L 133.109375 80.832031 L 150.261719 96.039062 L 127.773438 114.042969 C 127.609375 114.042969 127.445312 114.03125 127.277344 114.03125 C 123.429688 114.015625 120.246094 117.078125 120.082031 120.960938 C 119.902344 124.84375 122.789062 128.175781 126.636719 128.515625 C 130.472656 128.871094 133.90625 126.105469 134.414062 122.253906 L 134.488281 122.316406 Z M 165.355469 95.355469 "/>
<path style=" stroke:none;fill-rule:nonzero;fill:rgb(11.764706%,53.333336%,89.803922%);fill-opacity:1;" d="M 96.03125 65.597656 C 96.03125 65.597656 80.183594 62.980469 78.746094 75.296875 C 77.316406 87.609375 76.59375 87.609375 76.59375 87.609375 C 76.59375 87.609375 88.085938 85.4375 90.960938 88.335938 C 93.839844 91.226562 96.03125 65.597656 96.03125 65.597656 Z M 96.03125 65.597656 "/>
<path style=" stroke:none;fill-rule:nonzero;fill:rgb(11.764706%,53.333336%,89.803922%);fill-opacity:1;" d="M 119.714844 63.703125 C 119.714844 63.703125 132.65625 61.53125 138.40625 67.320312 C 144.15625 73.125 147.035156 74.574219 147.035156 74.574219 C 147.035156 74.574219 134.09375 81.824219 139.125 88.335938 C 139.125 88.335938 125.46875 81.824219 123.316406 83.988281 C 121.15625 86.164062 119.714844 63.703125 119.714844 63.703125 Z M 119.714844 63.703125 "/>
<path style=" stroke:none;fill-rule:nonzero;fill:rgb(18.431373%,18.039216%,25.490198%);fill-opacity:1;" d="M 108.371094 21.628906 C 104.292969 18.355469 103.21875 12.011719 105.585938 7.328125 C 107.957031 2.628906 113.304688 -0.207031 118.527344 0.0117188 C 123.742188 0.226562 128.664062 3.238281 131.6875 7.539062 C 135.933594 13.574219 136.824219 21.949219 142.472656 26.671875 C 147.5625 30.925781 154.875 30.8125 161.492188 30.46875 C 163.71875 30.355469 166.027344 30.230469 168.03125 29.226562 C 170.027344 28.222656 171.664062 26.113281 171.414062 23.878906 C 173.070312 26.535156 172.109375 30.253906 169.882812 32.449219 C 167.648438 34.632812 164.472656 35.546875 161.378906 35.914062 C 150.28125 37.097656 139.390625 32.273438 132.726562 23.246094 C 130.433594 20.046875 128.644531 16.316406 125.492188 13.976562 C 122.335938 11.628906 117.066406 11.460938 115.125 14.90625 C 114.164062 16.605469 114.265625 18.738281 113.378906 20.476562 C 112.496094 22.21875 109.628906 23.160156 108.78125 21.402344 "/>
<path style=" stroke:none;fill-rule:nonzero;fill:rgb(18.431373%,18.039216%,25.490198%);fill-opacity:1;" d="M 127.660156 36.496094 C 127.660156 25.417969 118.734375 16.429688 107.738281 16.429688 C 96.742188 16.429688 87.835938 25.417969 87.835938 36.496094 C 87.835938 47.59375 96.742188 56.582031 107.738281 56.582031 C 118.734375 56.582031 127.660156 47.59375 127.660156 36.496094 Z M 127.660156 36.496094 "/>
<path style=" stroke:none;fill-rule:nonzero;fill:rgb(100%,72.156864%,72.156864%);fill-opacity:1;" d="M 123.9375 41.714844 C 123.9375 32.640625 116.636719 25.273438 107.625 25.273438 C 98.617188 25.273438 91.320312 32.640625 91.320312 41.714844 C 91.320312 50.792969 98.617188 58.144531 107.625 58.144531 C 116.636719 58.144531 123.9375 50.792969 123.9375 41.714844 Z M 123.9375 41.714844 "/>
<path style=" stroke:none;fill-rule:nonzero;fill:rgb(18.431373%,18.039216%,25.490198%);fill-opacity:1;" d="M 92.761719 29.644531 C 94.984375 30.140625 94.25 33.886719 96.007812 35.328125 C 97.582031 36.640625 99.859375 35.292969 101.851562 34.808594 C 104.355469 34.1875 106.980469 35.089844 109.300781 36.246094 C 111.617188 37.398438 113.851562 38.824219 116.382812 39.355469 C 118.902344 39.902344 121.898438 39.292969 123.316406 37.117188 C 124.671875 35.039062 124.175781 32.21875 123.109375 29.972656 C 120.421875 24.269531 114.761719 20.605469 108.484375 20.519531 C 102.226562 20.425781 96.464844 23.945312 93.609375 29.570312 "/>
<path style=" stroke:none;fill-rule:nonzero;fill:rgb(24.705882%,23.921569%,33.725491%);fill-opacity:1;" d="M 476.882812 272.328125 C 476.882812 272.699219 476.589844 273 476.222656 273 L 2.277344 273 C 1.914062 273 1.621094 272.699219 1.621094 272.328125 C 1.621094 271.957031 1.914062 271.664062 2.277344 271.664062 L 476.222656 271.664062 C 476.589844 271.664062 476.882812 271.957031 476.882812 272.328125 Z M 476.882812 272.328125 "/>
</g>
</svg>
