<svg width="42" height="37" viewBox="0 0 42 37" fill="none" xmlns="http://www.w3.org/2000/svg">
<path d="M40.4809 33.4213H39.2298V11.4383C39.2298 10.634 38.5149 9.91914 37.7107 9.91914H26.5404V1.51914C26.5404 0.714902 25.8255 0 25.0213 0H12.4213C11.617 0 10.9021 0.714902 10.9021 1.51914V18.4085H4.28933C3.4851 18.4085 2.7702 19.1234 2.7702 19.9276V33.4213H1.51914C0.714902 33.4213 0 34.1362 0 34.9405C0 35.7448 0.714902 36.4596 1.51914 36.4596H4.28933H12.4213H25.1106H37.7106H40.4808C41.285 36.4596 41.9999 35.7447 41.9999 34.9405C41.9999 34.1362 41.2851 33.4213 40.4809 33.4213ZM5.80855 21.4468H10.9022V33.4213H5.80855V21.4468ZM20.2851 33.4213V27.434C20.2851 26.6298 19.5702 25.9149 18.766 25.9149C17.9617 25.9149 17.2468 26.6298 17.2468 27.434V33.4213H13.9404V19.9277V3.03836H23.5021V33.4213L20.2851 33.4213ZM26.6298 33.4213V12.9575H36.1915V33.4213L26.6298 33.4213Z" fill="white"/>
</svg>
